M48
; DRILL file {KiCad (5.1.8)-1} date 11/25/22 20:18:34
; FORMAT={3:3/ absolute / metric / suppress leading zeros}
; #@! TF.CreationDate,2022-11-25T20:18:34+09:00
; #@! TF.GenerationSoftware,Kicad,Pcbnew,(5.1.8)-1
FMAT,2
METRIC,TZ
T1C0.300
T2C0.800
T3C1.000
%
G90
G05
T1
X1270Y34925
X6350Y32385
X6350Y24765
X6350Y14605
X6350Y4445
X13335Y24765
X13335Y14605
X13335Y4445
T2
X3810Y34925
X3810Y32385
X3810Y29845
X3810Y27305
X3810Y24765
X3810Y22225
X3810Y19685
X3810Y17145
X3810Y14605
X3810Y12065
X3810Y9525
X3810Y6985
X3810Y4445
X3810Y1905
X19050Y34925
X19050Y32385
X19050Y29845
X19050Y27305
X19050Y24765
X19050Y22225
X19050Y19685
X19050Y17145
X19050Y14605
X19050Y12065
X19050Y9525
X19050Y6985
X19050Y4445
X19050Y1905
X1270Y32385
X1270Y29845
X1270Y27305
X1270Y24765
X1270Y22225
X1270Y19685
X1270Y17145
X1270Y14605
X1270Y12065
X1270Y9525
X1270Y6985
X1270Y4445
X16510Y32385
X16510Y29845
X16510Y27305
X16510Y24765
X16510Y22225
X16510Y19685
X16510Y17145
X16510Y14605
X16510Y12065
X16510Y9525
X16510Y6985
X16510Y4445
T3
X3175Y43180
X5715Y43180
X8255Y43180
X13335Y39370
X15875Y39370
X18415Y39370
X3175Y39370
X5715Y39370
X8255Y39370
X13335Y32385
X13335Y29845
X13335Y43180
X15875Y43180
X18415Y43180
T0
M30
