G04 #@! TF.GenerationSoftware,KiCad,Pcbnew,(5.1.8)-1*
G04 #@! TF.CreationDate,2022-11-25T20:18:31+09:00*
G04 #@! TF.ProjectId,MZ80CGROM,4d5a3830-4347-4524-9f4d-2e6b69636164,rev?*
G04 #@! TF.SameCoordinates,PX48ab840PY9157080*
G04 #@! TF.FileFunction,Copper,L2,Bot*
G04 #@! TF.FilePolarity,Positive*
%FSLAX46Y46*%
G04 Gerber Fmt 4.6, Leading zero omitted, Abs format (unit mm)*
G04 Created by KiCad (PCBNEW (5.1.8)-1) date 2022-11-25 20:18:31*
%MOMM*%
%LPD*%
G01*
G04 APERTURE LIST*
G04 #@! TA.AperFunction,ComponentPad*
%ADD10O,1.700000X1.700000*%
G04 #@! TD*
G04 #@! TA.AperFunction,ComponentPad*
%ADD11R,1.700000X1.700000*%
G04 #@! TD*
G04 #@! TA.AperFunction,ComponentPad*
%ADD12R,1.600000X1.600000*%
G04 #@! TD*
G04 #@! TA.AperFunction,ComponentPad*
%ADD13O,1.600000X1.600000*%
G04 #@! TD*
G04 #@! TA.AperFunction,ViaPad*
%ADD14C,0.600000*%
G04 #@! TD*
G04 #@! TA.AperFunction,Conductor*
%ADD15C,0.600000*%
G04 #@! TD*
G04 #@! TA.AperFunction,Conductor*
%ADD16C,0.200000*%
G04 #@! TD*
G04 #@! TA.AperFunction,Conductor*
%ADD17C,0.254000*%
G04 #@! TD*
G04 #@! TA.AperFunction,Conductor*
%ADD18C,0.100000*%
G04 #@! TD*
G04 APERTURE END LIST*
D10*
X13335000Y29845000D03*
D11*
X13335000Y32385000D03*
D12*
X3810000Y34925000D03*
D13*
X19050000Y1905000D03*
X3810000Y32385000D03*
X19050000Y4445000D03*
X3810000Y29845000D03*
X19050000Y6985000D03*
X3810000Y27305000D03*
X19050000Y9525000D03*
X3810000Y24765000D03*
X19050000Y12065000D03*
X3810000Y22225000D03*
X19050000Y14605000D03*
X3810000Y19685000D03*
X19050000Y17145000D03*
X3810000Y17145000D03*
X19050000Y19685000D03*
X3810000Y14605000D03*
X19050000Y22225000D03*
X3810000Y12065000D03*
X19050000Y24765000D03*
X3810000Y9525000D03*
X19050000Y27305000D03*
X3810000Y6985000D03*
X19050000Y29845000D03*
X3810000Y4445000D03*
X19050000Y32385000D03*
X3810000Y1905000D03*
X19050000Y34925000D03*
X16510000Y32385000D03*
X1270000Y4445000D03*
X16510000Y29845000D03*
X1270000Y6985000D03*
X16510000Y27305000D03*
X1270000Y9525000D03*
X16510000Y24765000D03*
X1270000Y12065000D03*
X16510000Y22225000D03*
X1270000Y14605000D03*
X16510000Y19685000D03*
X1270000Y17145000D03*
X16510000Y17145000D03*
X1270000Y19685000D03*
X16510000Y14605000D03*
X1270000Y22225000D03*
X16510000Y12065000D03*
X1270000Y24765000D03*
X16510000Y9525000D03*
X1270000Y27305000D03*
X16510000Y6985000D03*
X1270000Y29845000D03*
X16510000Y4445000D03*
D12*
X1270000Y32385000D03*
D11*
X3175000Y39370000D03*
D10*
X5715000Y39370000D03*
X8255000Y39370000D03*
X8255000Y43180000D03*
X5715000Y43180000D03*
D11*
X3175000Y43180000D03*
X13335000Y39370000D03*
D10*
X15875000Y39370000D03*
X18415000Y39370000D03*
X18415000Y43180000D03*
X15875000Y43180000D03*
D11*
X13335000Y43180000D03*
D14*
X13335000Y4445000D03*
X6350000Y4445000D03*
X13335000Y24765000D03*
X6350000Y24765000D03*
X13335000Y14605000D03*
X6350000Y32385000D03*
X6350000Y14605000D03*
X1270000Y34925000D03*
D15*
X13335000Y39370000D02*
X13335000Y32385000D01*
X13335000Y32385000D02*
X16510000Y32385000D01*
X16510000Y32385000D02*
X19050000Y34925000D01*
D16*
X1270000Y4445000D02*
X3810000Y1905000D01*
X1270000Y32385000D02*
X3810000Y29845000D01*
X1270000Y29845000D02*
X3810000Y27305000D01*
X1270000Y27305000D02*
X3810000Y24765000D01*
X1270000Y24765000D02*
X3810000Y22225000D01*
X1270000Y22225000D02*
X3810000Y19685000D01*
X1270000Y19685000D02*
X3810000Y17145000D01*
X1270000Y17145000D02*
X3810000Y14605000D01*
X1270000Y14605000D02*
X3810000Y12065000D01*
X1270000Y12065000D02*
X3810000Y9525000D01*
X1270000Y9525000D02*
X3810000Y6985000D01*
X1270000Y6985000D02*
X3810000Y4445000D01*
X16510000Y29845000D02*
X19050000Y27305000D01*
X16510000Y27305000D02*
X19050000Y24765000D01*
X19050000Y14605000D02*
X17780000Y15875000D01*
X17780000Y15875000D02*
X15240000Y15875000D01*
X15240000Y15875000D02*
X14605000Y16510000D01*
X14605000Y16510000D02*
X14605000Y20320000D01*
X14605000Y20320000D02*
X16510000Y22225000D01*
X16510000Y19685000D02*
X19050000Y17145000D01*
X16510000Y14605000D02*
X19050000Y12065000D01*
X16510000Y12065000D02*
X19050000Y9525000D01*
X16510000Y9525000D02*
X19050000Y6985000D01*
X16510000Y6985000D02*
X19050000Y4445000D01*
X16510000Y4445000D02*
X19050000Y1905000D01*
X3810000Y32385000D02*
X5715000Y34290000D01*
X5715000Y34290000D02*
X5715000Y39370000D01*
X19050000Y29845000D02*
X17780000Y31115000D01*
X6985000Y41910000D02*
X5715000Y43180000D01*
X6985000Y35560000D02*
X6985000Y41910000D01*
X17780000Y31115000D02*
X11430000Y31115000D01*
X11430000Y31115000D02*
X6985000Y35560000D01*
X16510000Y24765000D02*
X13335000Y27940000D01*
X13335000Y27940000D02*
X13335000Y29845000D01*
D17*
X1895934Y42330000D02*
X1904178Y42246293D01*
X1928595Y42165804D01*
X1968245Y42091624D01*
X2021605Y42026605D01*
X2086624Y41973245D01*
X2160804Y41933595D01*
X2241293Y41909178D01*
X2325000Y41900934D01*
X4025000Y41900934D01*
X4108707Y41909178D01*
X4189196Y41933595D01*
X4263376Y41973245D01*
X4328395Y42026605D01*
X4381755Y42091624D01*
X4421405Y42165804D01*
X4445822Y42246293D01*
X4454066Y42330000D01*
X4454066Y42973456D01*
X4487074Y42807513D01*
X4583337Y42575114D01*
X4723089Y42365960D01*
X4900960Y42188089D01*
X5110114Y42048337D01*
X5342513Y41952074D01*
X5589226Y41903000D01*
X5840774Y41903000D01*
X6087487Y41952074D01*
X6165374Y41984336D01*
X6458001Y41691709D01*
X6458001Y40409378D01*
X6319886Y40501663D01*
X6087487Y40597926D01*
X5840774Y40647000D01*
X5589226Y40647000D01*
X5342513Y40597926D01*
X5110114Y40501663D01*
X4900960Y40361911D01*
X4723089Y40184040D01*
X4583337Y39974886D01*
X4487074Y39742487D01*
X4454066Y39576544D01*
X4454066Y40220000D01*
X4445822Y40303707D01*
X4421405Y40384196D01*
X4381755Y40458376D01*
X4328395Y40523395D01*
X4263376Y40576755D01*
X4189196Y40616405D01*
X4108707Y40640822D01*
X4025000Y40649066D01*
X2325000Y40649066D01*
X2241293Y40640822D01*
X2160804Y40616405D01*
X2086624Y40576755D01*
X2021605Y40523395D01*
X1968245Y40458376D01*
X1928595Y40384196D01*
X1904178Y40303707D01*
X1895934Y40220000D01*
X1895934Y38520000D01*
X1904178Y38436293D01*
X1928595Y38355804D01*
X1968245Y38281624D01*
X2021605Y38216605D01*
X2086624Y38163245D01*
X2160804Y38123595D01*
X2241293Y38099178D01*
X2325000Y38090934D01*
X4025000Y38090934D01*
X4108707Y38099178D01*
X4189196Y38123595D01*
X4263376Y38163245D01*
X4328395Y38216605D01*
X4381755Y38281624D01*
X4421405Y38355804D01*
X4445822Y38436293D01*
X4454066Y38520000D01*
X4454066Y39163456D01*
X4487074Y38997513D01*
X4583337Y38765114D01*
X4723089Y38555960D01*
X4900960Y38378089D01*
X5110114Y38238337D01*
X5188001Y38206075D01*
X5188000Y34508291D01*
X5039066Y34359357D01*
X5039066Y35725000D01*
X5030822Y35808707D01*
X5006405Y35889196D01*
X4966755Y35963376D01*
X4913395Y36028395D01*
X4848376Y36081755D01*
X4774196Y36121405D01*
X4693707Y36145822D01*
X4610000Y36154066D01*
X3010000Y36154066D01*
X2926293Y36145822D01*
X2845804Y36121405D01*
X2771624Y36081755D01*
X2706605Y36028395D01*
X2653245Y35963376D01*
X2613595Y35889196D01*
X2589178Y35808707D01*
X2580934Y35725000D01*
X2580934Y34125000D01*
X2589178Y34041293D01*
X2613595Y33960804D01*
X2653245Y33886624D01*
X2706605Y33821605D01*
X2771624Y33768245D01*
X2845804Y33728595D01*
X2926293Y33704178D01*
X3010000Y33695934D01*
X4375644Y33695934D01*
X4222106Y33542395D01*
X4167903Y33564847D01*
X3930849Y33612000D01*
X3689151Y33612000D01*
X3452097Y33564847D01*
X3228798Y33472353D01*
X3027833Y33338073D01*
X2856927Y33167167D01*
X2722647Y32966202D01*
X2630153Y32742903D01*
X2583000Y32505849D01*
X2583000Y32264151D01*
X2630153Y32027097D01*
X2722647Y31803798D01*
X2856927Y31602833D01*
X3027833Y31431927D01*
X3228798Y31297647D01*
X3452097Y31205153D01*
X3689151Y31158000D01*
X3930849Y31158000D01*
X4167903Y31205153D01*
X4391202Y31297647D01*
X4592167Y31431927D01*
X4763073Y31602833D01*
X4897353Y31803798D01*
X4989847Y32027097D01*
X5037000Y32264151D01*
X5037000Y32505849D01*
X4989847Y32742903D01*
X4967395Y32797106D01*
X6069344Y33899054D01*
X6089448Y33915552D01*
X6155304Y33995798D01*
X6204239Y34087350D01*
X6234374Y34186690D01*
X6242000Y34264119D01*
X6242000Y34264120D01*
X6244549Y34290000D01*
X6242000Y34315881D01*
X6242000Y38206076D01*
X6319886Y38238337D01*
X6458000Y38330622D01*
X6458000Y35585881D01*
X6455451Y35560000D01*
X6458000Y35534120D01*
X6465626Y35456691D01*
X6495761Y35357351D01*
X6544696Y35265798D01*
X6610552Y35185552D01*
X6630666Y35169045D01*
X11039049Y30760661D01*
X11055552Y30740552D01*
X11135798Y30674696D01*
X11227350Y30625761D01*
X11326690Y30595626D01*
X11404119Y30588000D01*
X11404121Y30588000D01*
X11429999Y30585451D01*
X11455877Y30588000D01*
X12295622Y30588000D01*
X12203337Y30449886D01*
X12107074Y30217487D01*
X12058000Y29970774D01*
X12058000Y29719226D01*
X12107074Y29472513D01*
X12203337Y29240114D01*
X12343089Y29030960D01*
X12520960Y28853089D01*
X12730114Y28713337D01*
X12808000Y28681075D01*
X12808000Y27965881D01*
X12805451Y27940000D01*
X12808000Y27914120D01*
X12815626Y27836691D01*
X12845761Y27737351D01*
X12894696Y27645798D01*
X12960552Y27565552D01*
X12980666Y27549045D01*
X15352605Y25177106D01*
X15330153Y25122903D01*
X15283000Y24885849D01*
X15283000Y24644151D01*
X15330153Y24407097D01*
X15422647Y24183798D01*
X15556927Y23982833D01*
X15727833Y23811927D01*
X15928798Y23677647D01*
X16152097Y23585153D01*
X16389151Y23538000D01*
X16630849Y23538000D01*
X16867903Y23585153D01*
X17091202Y23677647D01*
X17292167Y23811927D01*
X17463073Y23982833D01*
X17597353Y24183798D01*
X17689847Y24407097D01*
X17737000Y24644151D01*
X17737000Y24885849D01*
X17689847Y25122903D01*
X17597353Y25346202D01*
X17463073Y25547167D01*
X17292167Y25718073D01*
X17091202Y25852353D01*
X16867903Y25944847D01*
X16630849Y25992000D01*
X16389151Y25992000D01*
X16152097Y25944847D01*
X16097894Y25922395D01*
X13862000Y28158289D01*
X13862000Y28681076D01*
X13939886Y28713337D01*
X14149040Y28853089D01*
X14326911Y29030960D01*
X14466663Y29240114D01*
X14562926Y29472513D01*
X14612000Y29719226D01*
X14612000Y29970774D01*
X14562926Y30217487D01*
X14466663Y30449886D01*
X14374378Y30588000D01*
X15530757Y30588000D01*
X15422647Y30426202D01*
X15330153Y30202903D01*
X15283000Y29965849D01*
X15283000Y29724151D01*
X15330153Y29487097D01*
X15422647Y29263798D01*
X15556927Y29062833D01*
X15727833Y28891927D01*
X15928798Y28757647D01*
X16152097Y28665153D01*
X16389151Y28618000D01*
X16630849Y28618000D01*
X16867903Y28665153D01*
X16922106Y28687605D01*
X17892605Y27717106D01*
X17870153Y27662903D01*
X17823000Y27425849D01*
X17823000Y27184151D01*
X17870153Y26947097D01*
X17962647Y26723798D01*
X18096927Y26522833D01*
X18267833Y26351927D01*
X18468798Y26217647D01*
X18692097Y26125153D01*
X18923000Y26079224D01*
X18923000Y25990776D01*
X18692097Y25944847D01*
X18637894Y25922395D01*
X17667395Y26892894D01*
X17689847Y26947097D01*
X17737000Y27184151D01*
X17737000Y27425849D01*
X17689847Y27662903D01*
X17597353Y27886202D01*
X17463073Y28087167D01*
X17292167Y28258073D01*
X17091202Y28392353D01*
X16867903Y28484847D01*
X16630849Y28532000D01*
X16389151Y28532000D01*
X16152097Y28484847D01*
X15928798Y28392353D01*
X15727833Y28258073D01*
X15556927Y28087167D01*
X15422647Y27886202D01*
X15330153Y27662903D01*
X15283000Y27425849D01*
X15283000Y27184151D01*
X15330153Y26947097D01*
X15422647Y26723798D01*
X15556927Y26522833D01*
X15727833Y26351927D01*
X15928798Y26217647D01*
X16152097Y26125153D01*
X16389151Y26078000D01*
X16630849Y26078000D01*
X16867903Y26125153D01*
X16922106Y26147605D01*
X17892605Y25177106D01*
X17870153Y25122903D01*
X17823000Y24885849D01*
X17823000Y24644151D01*
X17870153Y24407097D01*
X17962647Y24183798D01*
X18096927Y23982833D01*
X18267833Y23811927D01*
X18468798Y23677647D01*
X18692097Y23585153D01*
X18923000Y23539224D01*
X18923000Y23450776D01*
X18692097Y23404847D01*
X18468798Y23312353D01*
X18267833Y23178073D01*
X18096927Y23007167D01*
X17962647Y22806202D01*
X17870153Y22582903D01*
X17823000Y22345849D01*
X17823000Y22104151D01*
X17870153Y21867097D01*
X17962647Y21643798D01*
X18096927Y21442833D01*
X18267833Y21271927D01*
X18468798Y21137647D01*
X18655088Y21060483D01*
X18436119Y20982070D01*
X18194869Y20837385D01*
X17986481Y20648414D01*
X17818963Y20422420D01*
X17698754Y20168087D01*
X17673070Y20083407D01*
X17597353Y20266202D01*
X17463073Y20467167D01*
X17292167Y20638073D01*
X17091202Y20772353D01*
X16867903Y20864847D01*
X16630849Y20912000D01*
X16389151Y20912000D01*
X16152097Y20864847D01*
X15928798Y20772353D01*
X15727833Y20638073D01*
X15556927Y20467167D01*
X15422647Y20266202D01*
X15330153Y20042903D01*
X15283000Y19805849D01*
X15283000Y19564151D01*
X15330153Y19327097D01*
X15422647Y19103798D01*
X15556927Y18902833D01*
X15727833Y18731927D01*
X15928798Y18597647D01*
X16152097Y18505153D01*
X16389151Y18458000D01*
X16630849Y18458000D01*
X16867903Y18505153D01*
X16922106Y18527605D01*
X17892605Y17557106D01*
X17870153Y17502903D01*
X17823000Y17265849D01*
X17823000Y17024151D01*
X17870153Y16787097D01*
X17962647Y16563798D01*
X18096927Y16362833D01*
X18267833Y16191927D01*
X18468798Y16057647D01*
X18692097Y15965153D01*
X18923000Y15919224D01*
X18923000Y15830776D01*
X18692097Y15784847D01*
X18637894Y15762395D01*
X18170955Y16229334D01*
X18154448Y16249448D01*
X18074202Y16315304D01*
X17982650Y16364239D01*
X17883310Y16394374D01*
X17805881Y16402000D01*
X17780000Y16404549D01*
X17754119Y16402000D01*
X17489243Y16402000D01*
X17597353Y16563798D01*
X17689847Y16787097D01*
X17737000Y17024151D01*
X17737000Y17265849D01*
X17689847Y17502903D01*
X17597353Y17726202D01*
X17463073Y17927167D01*
X17292167Y18098073D01*
X17091202Y18232353D01*
X16867903Y18324847D01*
X16630849Y18372000D01*
X16389151Y18372000D01*
X16152097Y18324847D01*
X15928798Y18232353D01*
X15727833Y18098073D01*
X15556927Y17927167D01*
X15422647Y17726202D01*
X15330153Y17502903D01*
X15283000Y17265849D01*
X15283000Y17024151D01*
X15330153Y16787097D01*
X15422647Y16563798D01*
X15530757Y16402000D01*
X15458290Y16402000D01*
X15132000Y16728290D01*
X15132000Y20101711D01*
X16097895Y21067604D01*
X16152097Y21045153D01*
X16389151Y20998000D01*
X16630849Y20998000D01*
X16867903Y21045153D01*
X17091202Y21137647D01*
X17292167Y21271927D01*
X17463073Y21442833D01*
X17597353Y21643798D01*
X17689847Y21867097D01*
X17737000Y22104151D01*
X17737000Y22345849D01*
X17689847Y22582903D01*
X17597353Y22806202D01*
X17463073Y23007167D01*
X17292167Y23178073D01*
X17091202Y23312353D01*
X16867903Y23404847D01*
X16630849Y23452000D01*
X16389151Y23452000D01*
X16152097Y23404847D01*
X15928798Y23312353D01*
X15727833Y23178073D01*
X15556927Y23007167D01*
X15422647Y22806202D01*
X15330153Y22582903D01*
X15283000Y22345849D01*
X15283000Y22104151D01*
X15330153Y21867097D01*
X15352604Y21812895D01*
X14250662Y20710951D01*
X14230553Y20694448D01*
X14173061Y20624394D01*
X14164696Y20614201D01*
X14115761Y20522649D01*
X14085626Y20423309D01*
X14075451Y20320000D01*
X14078001Y20294109D01*
X14078000Y16535881D01*
X14075451Y16510000D01*
X14078000Y16484120D01*
X14085626Y16406691D01*
X14115761Y16307351D01*
X14164696Y16215798D01*
X14230552Y16135552D01*
X14250666Y16119045D01*
X14849053Y15520656D01*
X14865552Y15500552D01*
X14945798Y15434696D01*
X15037350Y15385761D01*
X15136690Y15355626D01*
X15240000Y15345451D01*
X15265881Y15348000D01*
X15530757Y15348000D01*
X15422647Y15186202D01*
X15330153Y14962903D01*
X15283000Y14725849D01*
X15283000Y14484151D01*
X15330153Y14247097D01*
X15422647Y14023798D01*
X15556927Y13822833D01*
X15727833Y13651927D01*
X15928798Y13517647D01*
X16152097Y13425153D01*
X16389151Y13378000D01*
X16630849Y13378000D01*
X16867903Y13425153D01*
X16922106Y13447605D01*
X17892605Y12477106D01*
X17870153Y12422903D01*
X17823000Y12185849D01*
X17823000Y11944151D01*
X17870153Y11707097D01*
X17962647Y11483798D01*
X18096927Y11282833D01*
X18267833Y11111927D01*
X18468798Y10977647D01*
X18692097Y10885153D01*
X18923000Y10839224D01*
X18923000Y10750776D01*
X18692097Y10704847D01*
X18637894Y10682395D01*
X17667395Y11652894D01*
X17689847Y11707097D01*
X17737000Y11944151D01*
X17737000Y12185849D01*
X17689847Y12422903D01*
X17597353Y12646202D01*
X17463073Y12847167D01*
X17292167Y13018073D01*
X17091202Y13152353D01*
X16867903Y13244847D01*
X16630849Y13292000D01*
X16389151Y13292000D01*
X16152097Y13244847D01*
X15928798Y13152353D01*
X15727833Y13018073D01*
X15556927Y12847167D01*
X15422647Y12646202D01*
X15330153Y12422903D01*
X15283000Y12185849D01*
X15283000Y11944151D01*
X15330153Y11707097D01*
X15422647Y11483798D01*
X15556927Y11282833D01*
X15727833Y11111927D01*
X15928798Y10977647D01*
X16152097Y10885153D01*
X16389151Y10838000D01*
X16630849Y10838000D01*
X16867903Y10885153D01*
X16922106Y10907605D01*
X17892605Y9937106D01*
X17870153Y9882903D01*
X17823000Y9645849D01*
X17823000Y9404151D01*
X17870153Y9167097D01*
X17962647Y8943798D01*
X18096927Y8742833D01*
X18267833Y8571927D01*
X18468798Y8437647D01*
X18692097Y8345153D01*
X18923000Y8299224D01*
X18923000Y8210776D01*
X18692097Y8164847D01*
X18637894Y8142395D01*
X17667395Y9112894D01*
X17689847Y9167097D01*
X17737000Y9404151D01*
X17737000Y9645849D01*
X17689847Y9882903D01*
X17597353Y10106202D01*
X17463073Y10307167D01*
X17292167Y10478073D01*
X17091202Y10612353D01*
X16867903Y10704847D01*
X16630849Y10752000D01*
X16389151Y10752000D01*
X16152097Y10704847D01*
X15928798Y10612353D01*
X15727833Y10478073D01*
X15556927Y10307167D01*
X15422647Y10106202D01*
X15330153Y9882903D01*
X15283000Y9645849D01*
X15283000Y9404151D01*
X15330153Y9167097D01*
X15422647Y8943798D01*
X15556927Y8742833D01*
X15727833Y8571927D01*
X15928798Y8437647D01*
X16152097Y8345153D01*
X16389151Y8298000D01*
X16630849Y8298000D01*
X16867903Y8345153D01*
X16922106Y8367605D01*
X17892605Y7397106D01*
X17870153Y7342903D01*
X17823000Y7105849D01*
X17823000Y6864151D01*
X17870153Y6627097D01*
X17962647Y6403798D01*
X18096927Y6202833D01*
X18267833Y6031927D01*
X18468798Y5897647D01*
X18692097Y5805153D01*
X18923000Y5759224D01*
X18923000Y5670776D01*
X18692097Y5624847D01*
X18637894Y5602395D01*
X17667395Y6572894D01*
X17689847Y6627097D01*
X17737000Y6864151D01*
X17737000Y7105849D01*
X17689847Y7342903D01*
X17597353Y7566202D01*
X17463073Y7767167D01*
X17292167Y7938073D01*
X17091202Y8072353D01*
X16867903Y8164847D01*
X16630849Y8212000D01*
X16389151Y8212000D01*
X16152097Y8164847D01*
X15928798Y8072353D01*
X15727833Y7938073D01*
X15556927Y7767167D01*
X15422647Y7566202D01*
X15330153Y7342903D01*
X15283000Y7105849D01*
X15283000Y6864151D01*
X15330153Y6627097D01*
X15422647Y6403798D01*
X15556927Y6202833D01*
X15727833Y6031927D01*
X15928798Y5897647D01*
X16152097Y5805153D01*
X16389151Y5758000D01*
X16630849Y5758000D01*
X16867903Y5805153D01*
X16922106Y5827605D01*
X17892605Y4857106D01*
X17870153Y4802903D01*
X17823000Y4565849D01*
X17823000Y4324151D01*
X17870153Y4087097D01*
X17962647Y3863798D01*
X18096927Y3662833D01*
X18267833Y3491927D01*
X18468798Y3357647D01*
X18692097Y3265153D01*
X18923000Y3219224D01*
X18923000Y3130776D01*
X18692097Y3084847D01*
X18637894Y3062395D01*
X17667395Y4032894D01*
X17689847Y4087097D01*
X17737000Y4324151D01*
X17737000Y4565849D01*
X17689847Y4802903D01*
X17597353Y5026202D01*
X17463073Y5227167D01*
X17292167Y5398073D01*
X17091202Y5532353D01*
X16867903Y5624847D01*
X16630849Y5672000D01*
X16389151Y5672000D01*
X16152097Y5624847D01*
X15928798Y5532353D01*
X15727833Y5398073D01*
X15556927Y5227167D01*
X15422647Y5026202D01*
X15330153Y4802903D01*
X15283000Y4565849D01*
X15283000Y4324151D01*
X15330153Y4087097D01*
X15422647Y3863798D01*
X15556927Y3662833D01*
X15727833Y3491927D01*
X15928798Y3357647D01*
X16152097Y3265153D01*
X16389151Y3218000D01*
X16630849Y3218000D01*
X16867903Y3265153D01*
X16922106Y3287605D01*
X17892605Y2317106D01*
X17870153Y2262903D01*
X17823000Y2025849D01*
X17823000Y1784151D01*
X17870153Y1547097D01*
X17962647Y1323798D01*
X18096927Y1122833D01*
X18267833Y951927D01*
X18468798Y817647D01*
X18603141Y762000D01*
X4675480Y762000D01*
X4873519Y941586D01*
X5041037Y1167580D01*
X5161246Y1421913D01*
X5201904Y1555961D01*
X5079915Y1778000D01*
X3937000Y1778000D01*
X3937000Y1758000D01*
X3683000Y1758000D01*
X3683000Y1778000D01*
X2540085Y1778000D01*
X2418096Y1555961D01*
X2458754Y1421913D01*
X2578963Y1167580D01*
X2746481Y941586D01*
X2944520Y762000D01*
X452000Y762000D01*
X452000Y3270346D01*
X656119Y3147930D01*
X920960Y3053091D01*
X1143000Y3174376D01*
X1143000Y4318000D01*
X1123000Y4318000D01*
X1123000Y4572000D01*
X1143000Y4572000D01*
X1143000Y4592000D01*
X1397000Y4592000D01*
X1397000Y4572000D01*
X1417000Y4572000D01*
X1417000Y4318000D01*
X1397000Y4318000D01*
X1397000Y3174376D01*
X1619040Y3053091D01*
X1883881Y3147930D01*
X2125131Y3292615D01*
X2333519Y3481586D01*
X2501037Y3707580D01*
X2621246Y3961913D01*
X2646930Y4046593D01*
X2722647Y3863798D01*
X2856927Y3662833D01*
X3027833Y3491927D01*
X3228798Y3357647D01*
X3415088Y3280483D01*
X3196119Y3202070D01*
X2954869Y3057385D01*
X2746481Y2868414D01*
X2578963Y2642420D01*
X2458754Y2388087D01*
X2418096Y2254039D01*
X2540085Y2032000D01*
X3683000Y2032000D01*
X3683000Y2052000D01*
X3937000Y2052000D01*
X3937000Y2032000D01*
X5079915Y2032000D01*
X5201904Y2254039D01*
X5161246Y2388087D01*
X5041037Y2642420D01*
X4873519Y2868414D01*
X4665131Y3057385D01*
X4423881Y3202070D01*
X4204912Y3280483D01*
X4391202Y3357647D01*
X4592167Y3491927D01*
X4763073Y3662833D01*
X4897353Y3863798D01*
X4989847Y4087097D01*
X5037000Y4324151D01*
X5037000Y4565849D01*
X4989847Y4802903D01*
X4897353Y5026202D01*
X4763073Y5227167D01*
X4592167Y5398073D01*
X4391202Y5532353D01*
X4167903Y5624847D01*
X3930849Y5672000D01*
X3689151Y5672000D01*
X3452097Y5624847D01*
X3397894Y5602395D01*
X2427395Y6572894D01*
X2449847Y6627097D01*
X2497000Y6864151D01*
X2497000Y7105849D01*
X2449847Y7342903D01*
X2357353Y7566202D01*
X2223073Y7767167D01*
X2052167Y7938073D01*
X1851202Y8072353D01*
X1627903Y8164847D01*
X1390849Y8212000D01*
X1149151Y8212000D01*
X912097Y8164847D01*
X688798Y8072353D01*
X487833Y7938073D01*
X452000Y7902240D01*
X452000Y8607760D01*
X487833Y8571927D01*
X688798Y8437647D01*
X912097Y8345153D01*
X1149151Y8298000D01*
X1390849Y8298000D01*
X1627903Y8345153D01*
X1682106Y8367605D01*
X2652605Y7397106D01*
X2630153Y7342903D01*
X2583000Y7105849D01*
X2583000Y6864151D01*
X2630153Y6627097D01*
X2722647Y6403798D01*
X2856927Y6202833D01*
X3027833Y6031927D01*
X3228798Y5897647D01*
X3452097Y5805153D01*
X3689151Y5758000D01*
X3930849Y5758000D01*
X4167903Y5805153D01*
X4391202Y5897647D01*
X4592167Y6031927D01*
X4763073Y6202833D01*
X4897353Y6403798D01*
X4989847Y6627097D01*
X5037000Y6864151D01*
X5037000Y7105849D01*
X4989847Y7342903D01*
X4897353Y7566202D01*
X4763073Y7767167D01*
X4592167Y7938073D01*
X4391202Y8072353D01*
X4167903Y8164847D01*
X3930849Y8212000D01*
X3689151Y8212000D01*
X3452097Y8164847D01*
X3397894Y8142395D01*
X2427395Y9112894D01*
X2449847Y9167097D01*
X2497000Y9404151D01*
X2497000Y9645849D01*
X2449847Y9882903D01*
X2357353Y10106202D01*
X2223073Y10307167D01*
X2052167Y10478073D01*
X1851202Y10612353D01*
X1627903Y10704847D01*
X1390849Y10752000D01*
X1149151Y10752000D01*
X912097Y10704847D01*
X688798Y10612353D01*
X487833Y10478073D01*
X452000Y10442240D01*
X452000Y11147760D01*
X487833Y11111927D01*
X688798Y10977647D01*
X912097Y10885153D01*
X1149151Y10838000D01*
X1390849Y10838000D01*
X1627903Y10885153D01*
X1682106Y10907605D01*
X2652605Y9937106D01*
X2630153Y9882903D01*
X2583000Y9645849D01*
X2583000Y9404151D01*
X2630153Y9167097D01*
X2722647Y8943798D01*
X2856927Y8742833D01*
X3027833Y8571927D01*
X3228798Y8437647D01*
X3452097Y8345153D01*
X3689151Y8298000D01*
X3930849Y8298000D01*
X4167903Y8345153D01*
X4391202Y8437647D01*
X4592167Y8571927D01*
X4763073Y8742833D01*
X4897353Y8943798D01*
X4989847Y9167097D01*
X5037000Y9404151D01*
X5037000Y9645849D01*
X4989847Y9882903D01*
X4897353Y10106202D01*
X4763073Y10307167D01*
X4592167Y10478073D01*
X4391202Y10612353D01*
X4167903Y10704847D01*
X3930849Y10752000D01*
X3689151Y10752000D01*
X3452097Y10704847D01*
X3397894Y10682395D01*
X2427395Y11652894D01*
X2449847Y11707097D01*
X2497000Y11944151D01*
X2497000Y12185849D01*
X2449847Y12422903D01*
X2357353Y12646202D01*
X2223073Y12847167D01*
X2052167Y13018073D01*
X1851202Y13152353D01*
X1627903Y13244847D01*
X1390849Y13292000D01*
X1149151Y13292000D01*
X912097Y13244847D01*
X688798Y13152353D01*
X487833Y13018073D01*
X452000Y12982240D01*
X452000Y13687760D01*
X487833Y13651927D01*
X688798Y13517647D01*
X912097Y13425153D01*
X1149151Y13378000D01*
X1390849Y13378000D01*
X1627903Y13425153D01*
X1682106Y13447605D01*
X2652605Y12477106D01*
X2630153Y12422903D01*
X2583000Y12185849D01*
X2583000Y11944151D01*
X2630153Y11707097D01*
X2722647Y11483798D01*
X2856927Y11282833D01*
X3027833Y11111927D01*
X3228798Y10977647D01*
X3452097Y10885153D01*
X3689151Y10838000D01*
X3930849Y10838000D01*
X4167903Y10885153D01*
X4391202Y10977647D01*
X4592167Y11111927D01*
X4763073Y11282833D01*
X4897353Y11483798D01*
X4989847Y11707097D01*
X5037000Y11944151D01*
X5037000Y12185849D01*
X4989847Y12422903D01*
X4897353Y12646202D01*
X4763073Y12847167D01*
X4592167Y13018073D01*
X4391202Y13152353D01*
X4167903Y13244847D01*
X3930849Y13292000D01*
X3689151Y13292000D01*
X3452097Y13244847D01*
X3397894Y13222395D01*
X2427395Y14192894D01*
X2449847Y14247097D01*
X2497000Y14484151D01*
X2497000Y14725849D01*
X2449847Y14962903D01*
X2357353Y15186202D01*
X2223073Y15387167D01*
X2052167Y15558073D01*
X1851202Y15692353D01*
X1627903Y15784847D01*
X1390849Y15832000D01*
X1149151Y15832000D01*
X912097Y15784847D01*
X688798Y15692353D01*
X487833Y15558073D01*
X452000Y15522240D01*
X452000Y16227760D01*
X487833Y16191927D01*
X688798Y16057647D01*
X912097Y15965153D01*
X1149151Y15918000D01*
X1390849Y15918000D01*
X1627903Y15965153D01*
X1682106Y15987605D01*
X2652605Y15017106D01*
X2630153Y14962903D01*
X2583000Y14725849D01*
X2583000Y14484151D01*
X2630153Y14247097D01*
X2722647Y14023798D01*
X2856927Y13822833D01*
X3027833Y13651927D01*
X3228798Y13517647D01*
X3452097Y13425153D01*
X3689151Y13378000D01*
X3930849Y13378000D01*
X4167903Y13425153D01*
X4391202Y13517647D01*
X4592167Y13651927D01*
X4763073Y13822833D01*
X4897353Y14023798D01*
X4989847Y14247097D01*
X5037000Y14484151D01*
X5037000Y14725849D01*
X4989847Y14962903D01*
X4897353Y15186202D01*
X4763073Y15387167D01*
X4592167Y15558073D01*
X4391202Y15692353D01*
X4167903Y15784847D01*
X3930849Y15832000D01*
X3689151Y15832000D01*
X3452097Y15784847D01*
X3397894Y15762395D01*
X2427395Y16732894D01*
X2449847Y16787097D01*
X2497000Y17024151D01*
X2497000Y17265849D01*
X2449847Y17502903D01*
X2357353Y17726202D01*
X2223073Y17927167D01*
X2052167Y18098073D01*
X1851202Y18232353D01*
X1627903Y18324847D01*
X1390849Y18372000D01*
X1149151Y18372000D01*
X912097Y18324847D01*
X688798Y18232353D01*
X487833Y18098073D01*
X452000Y18062240D01*
X452000Y18767760D01*
X487833Y18731927D01*
X688798Y18597647D01*
X912097Y18505153D01*
X1149151Y18458000D01*
X1390849Y18458000D01*
X1627903Y18505153D01*
X1682106Y18527605D01*
X2652605Y17557106D01*
X2630153Y17502903D01*
X2583000Y17265849D01*
X2583000Y17024151D01*
X2630153Y16787097D01*
X2722647Y16563798D01*
X2856927Y16362833D01*
X3027833Y16191927D01*
X3228798Y16057647D01*
X3452097Y15965153D01*
X3689151Y15918000D01*
X3930849Y15918000D01*
X4167903Y15965153D01*
X4391202Y16057647D01*
X4592167Y16191927D01*
X4763073Y16362833D01*
X4897353Y16563798D01*
X4989847Y16787097D01*
X5037000Y17024151D01*
X5037000Y17265849D01*
X4989847Y17502903D01*
X4897353Y17726202D01*
X4763073Y17927167D01*
X4592167Y18098073D01*
X4391202Y18232353D01*
X4167903Y18324847D01*
X3930849Y18372000D01*
X3689151Y18372000D01*
X3452097Y18324847D01*
X3397894Y18302395D01*
X2427395Y19272894D01*
X2449847Y19327097D01*
X2497000Y19564151D01*
X2497000Y19805849D01*
X2449847Y20042903D01*
X2357353Y20266202D01*
X2223073Y20467167D01*
X2052167Y20638073D01*
X1851202Y20772353D01*
X1627903Y20864847D01*
X1390849Y20912000D01*
X1149151Y20912000D01*
X912097Y20864847D01*
X688798Y20772353D01*
X487833Y20638073D01*
X452000Y20602240D01*
X452000Y21307760D01*
X487833Y21271927D01*
X688798Y21137647D01*
X912097Y21045153D01*
X1149151Y20998000D01*
X1390849Y20998000D01*
X1627903Y21045153D01*
X1682106Y21067605D01*
X2652605Y20097106D01*
X2630153Y20042903D01*
X2583000Y19805849D01*
X2583000Y19564151D01*
X2630153Y19327097D01*
X2722647Y19103798D01*
X2856927Y18902833D01*
X3027833Y18731927D01*
X3228798Y18597647D01*
X3452097Y18505153D01*
X3689151Y18458000D01*
X3930849Y18458000D01*
X4167903Y18505153D01*
X4391202Y18597647D01*
X4592167Y18731927D01*
X4763073Y18902833D01*
X4897353Y19103798D01*
X4989847Y19327097D01*
X5037000Y19564151D01*
X5037000Y19805849D01*
X4989847Y20042903D01*
X4897353Y20266202D01*
X4763073Y20467167D01*
X4592167Y20638073D01*
X4391202Y20772353D01*
X4167903Y20864847D01*
X3930849Y20912000D01*
X3689151Y20912000D01*
X3452097Y20864847D01*
X3397894Y20842395D01*
X2427395Y21812894D01*
X2449847Y21867097D01*
X2497000Y22104151D01*
X2497000Y22345849D01*
X2449847Y22582903D01*
X2357353Y22806202D01*
X2223073Y23007167D01*
X2052167Y23178073D01*
X1851202Y23312353D01*
X1627903Y23404847D01*
X1390849Y23452000D01*
X1149151Y23452000D01*
X912097Y23404847D01*
X688798Y23312353D01*
X487833Y23178073D01*
X452000Y23142240D01*
X452000Y23847760D01*
X487833Y23811927D01*
X688798Y23677647D01*
X912097Y23585153D01*
X1149151Y23538000D01*
X1390849Y23538000D01*
X1627903Y23585153D01*
X1682106Y23607605D01*
X2652605Y22637106D01*
X2630153Y22582903D01*
X2583000Y22345849D01*
X2583000Y22104151D01*
X2630153Y21867097D01*
X2722647Y21643798D01*
X2856927Y21442833D01*
X3027833Y21271927D01*
X3228798Y21137647D01*
X3452097Y21045153D01*
X3689151Y20998000D01*
X3930849Y20998000D01*
X4167903Y21045153D01*
X4391202Y21137647D01*
X4592167Y21271927D01*
X4763073Y21442833D01*
X4897353Y21643798D01*
X4989847Y21867097D01*
X5037000Y22104151D01*
X5037000Y22345849D01*
X4989847Y22582903D01*
X4897353Y22806202D01*
X4763073Y23007167D01*
X4592167Y23178073D01*
X4391202Y23312353D01*
X4167903Y23404847D01*
X3930849Y23452000D01*
X3689151Y23452000D01*
X3452097Y23404847D01*
X3397894Y23382395D01*
X2427395Y24352894D01*
X2449847Y24407097D01*
X2497000Y24644151D01*
X2497000Y24885849D01*
X2449847Y25122903D01*
X2357353Y25346202D01*
X2223073Y25547167D01*
X2052167Y25718073D01*
X1851202Y25852353D01*
X1627903Y25944847D01*
X1390849Y25992000D01*
X1149151Y25992000D01*
X912097Y25944847D01*
X688798Y25852353D01*
X487833Y25718073D01*
X452000Y25682240D01*
X452000Y26387760D01*
X487833Y26351927D01*
X688798Y26217647D01*
X912097Y26125153D01*
X1149151Y26078000D01*
X1390849Y26078000D01*
X1627903Y26125153D01*
X1682106Y26147605D01*
X2652605Y25177106D01*
X2630153Y25122903D01*
X2583000Y24885849D01*
X2583000Y24644151D01*
X2630153Y24407097D01*
X2722647Y24183798D01*
X2856927Y23982833D01*
X3027833Y23811927D01*
X3228798Y23677647D01*
X3452097Y23585153D01*
X3689151Y23538000D01*
X3930849Y23538000D01*
X4167903Y23585153D01*
X4391202Y23677647D01*
X4592167Y23811927D01*
X4763073Y23982833D01*
X4897353Y24183798D01*
X4989847Y24407097D01*
X5037000Y24644151D01*
X5037000Y24885849D01*
X4989847Y25122903D01*
X4897353Y25346202D01*
X4763073Y25547167D01*
X4592167Y25718073D01*
X4391202Y25852353D01*
X4167903Y25944847D01*
X3930849Y25992000D01*
X3689151Y25992000D01*
X3452097Y25944847D01*
X3397894Y25922395D01*
X2427395Y26892894D01*
X2449847Y26947097D01*
X2497000Y27184151D01*
X2497000Y27425849D01*
X2449847Y27662903D01*
X2357353Y27886202D01*
X2223073Y28087167D01*
X2052167Y28258073D01*
X1851202Y28392353D01*
X1627903Y28484847D01*
X1390849Y28532000D01*
X1149151Y28532000D01*
X912097Y28484847D01*
X688798Y28392353D01*
X487833Y28258073D01*
X452000Y28222240D01*
X452000Y28927760D01*
X487833Y28891927D01*
X688798Y28757647D01*
X912097Y28665153D01*
X1149151Y28618000D01*
X1390849Y28618000D01*
X1627903Y28665153D01*
X1682106Y28687605D01*
X2652605Y27717106D01*
X2630153Y27662903D01*
X2583000Y27425849D01*
X2583000Y27184151D01*
X2630153Y26947097D01*
X2722647Y26723798D01*
X2856927Y26522833D01*
X3027833Y26351927D01*
X3228798Y26217647D01*
X3452097Y26125153D01*
X3689151Y26078000D01*
X3930849Y26078000D01*
X4167903Y26125153D01*
X4391202Y26217647D01*
X4592167Y26351927D01*
X4763073Y26522833D01*
X4897353Y26723798D01*
X4989847Y26947097D01*
X5037000Y27184151D01*
X5037000Y27425849D01*
X4989847Y27662903D01*
X4897353Y27886202D01*
X4763073Y28087167D01*
X4592167Y28258073D01*
X4391202Y28392353D01*
X4167903Y28484847D01*
X3930849Y28532000D01*
X3689151Y28532000D01*
X3452097Y28484847D01*
X3397894Y28462395D01*
X2427395Y29432894D01*
X2449847Y29487097D01*
X2497000Y29724151D01*
X2497000Y29965849D01*
X2449847Y30202903D01*
X2357353Y30426202D01*
X2223073Y30627167D01*
X2052167Y30798073D01*
X1851202Y30932353D01*
X1627903Y31024847D01*
X1390849Y31072000D01*
X1149151Y31072000D01*
X912097Y31024847D01*
X688798Y30932353D01*
X487833Y30798073D01*
X452000Y30762240D01*
X452000Y31157707D01*
X470000Y31155934D01*
X1753777Y31155934D01*
X2652605Y30257106D01*
X2630153Y30202903D01*
X2583000Y29965849D01*
X2583000Y29724151D01*
X2630153Y29487097D01*
X2722647Y29263798D01*
X2856927Y29062833D01*
X3027833Y28891927D01*
X3228798Y28757647D01*
X3452097Y28665153D01*
X3689151Y28618000D01*
X3930849Y28618000D01*
X4167903Y28665153D01*
X4391202Y28757647D01*
X4592167Y28891927D01*
X4763073Y29062833D01*
X4897353Y29263798D01*
X4989847Y29487097D01*
X5037000Y29724151D01*
X5037000Y29965849D01*
X4989847Y30202903D01*
X4897353Y30426202D01*
X4763073Y30627167D01*
X4592167Y30798073D01*
X4391202Y30932353D01*
X4167903Y31024847D01*
X3930849Y31072000D01*
X3689151Y31072000D01*
X3452097Y31024847D01*
X3397894Y31002395D01*
X2499066Y31901223D01*
X2499066Y33185000D01*
X2490822Y33268707D01*
X2466405Y33349196D01*
X2426755Y33423376D01*
X2373395Y33488395D01*
X2308376Y33541755D01*
X2234196Y33581405D01*
X2153707Y33605822D01*
X2070000Y33614066D01*
X470000Y33614066D01*
X452000Y33612293D01*
X452000Y43688000D01*
X1895934Y43688000D01*
X1895934Y42330000D01*
G04 #@! TA.AperFunction,Conductor*
D18*
G36*
X1895934Y42330000D02*
G01*
X1904178Y42246293D01*
X1928595Y42165804D01*
X1968245Y42091624D01*
X2021605Y42026605D01*
X2086624Y41973245D01*
X2160804Y41933595D01*
X2241293Y41909178D01*
X2325000Y41900934D01*
X4025000Y41900934D01*
X4108707Y41909178D01*
X4189196Y41933595D01*
X4263376Y41973245D01*
X4328395Y42026605D01*
X4381755Y42091624D01*
X4421405Y42165804D01*
X4445822Y42246293D01*
X4454066Y42330000D01*
X4454066Y42973456D01*
X4487074Y42807513D01*
X4583337Y42575114D01*
X4723089Y42365960D01*
X4900960Y42188089D01*
X5110114Y42048337D01*
X5342513Y41952074D01*
X5589226Y41903000D01*
X5840774Y41903000D01*
X6087487Y41952074D01*
X6165374Y41984336D01*
X6458001Y41691709D01*
X6458001Y40409378D01*
X6319886Y40501663D01*
X6087487Y40597926D01*
X5840774Y40647000D01*
X5589226Y40647000D01*
X5342513Y40597926D01*
X5110114Y40501663D01*
X4900960Y40361911D01*
X4723089Y40184040D01*
X4583337Y39974886D01*
X4487074Y39742487D01*
X4454066Y39576544D01*
X4454066Y40220000D01*
X4445822Y40303707D01*
X4421405Y40384196D01*
X4381755Y40458376D01*
X4328395Y40523395D01*
X4263376Y40576755D01*
X4189196Y40616405D01*
X4108707Y40640822D01*
X4025000Y40649066D01*
X2325000Y40649066D01*
X2241293Y40640822D01*
X2160804Y40616405D01*
X2086624Y40576755D01*
X2021605Y40523395D01*
X1968245Y40458376D01*
X1928595Y40384196D01*
X1904178Y40303707D01*
X1895934Y40220000D01*
X1895934Y38520000D01*
X1904178Y38436293D01*
X1928595Y38355804D01*
X1968245Y38281624D01*
X2021605Y38216605D01*
X2086624Y38163245D01*
X2160804Y38123595D01*
X2241293Y38099178D01*
X2325000Y38090934D01*
X4025000Y38090934D01*
X4108707Y38099178D01*
X4189196Y38123595D01*
X4263376Y38163245D01*
X4328395Y38216605D01*
X4381755Y38281624D01*
X4421405Y38355804D01*
X4445822Y38436293D01*
X4454066Y38520000D01*
X4454066Y39163456D01*
X4487074Y38997513D01*
X4583337Y38765114D01*
X4723089Y38555960D01*
X4900960Y38378089D01*
X5110114Y38238337D01*
X5188001Y38206075D01*
X5188000Y34508291D01*
X5039066Y34359357D01*
X5039066Y35725000D01*
X5030822Y35808707D01*
X5006405Y35889196D01*
X4966755Y35963376D01*
X4913395Y36028395D01*
X4848376Y36081755D01*
X4774196Y36121405D01*
X4693707Y36145822D01*
X4610000Y36154066D01*
X3010000Y36154066D01*
X2926293Y36145822D01*
X2845804Y36121405D01*
X2771624Y36081755D01*
X2706605Y36028395D01*
X2653245Y35963376D01*
X2613595Y35889196D01*
X2589178Y35808707D01*
X2580934Y35725000D01*
X2580934Y34125000D01*
X2589178Y34041293D01*
X2613595Y33960804D01*
X2653245Y33886624D01*
X2706605Y33821605D01*
X2771624Y33768245D01*
X2845804Y33728595D01*
X2926293Y33704178D01*
X3010000Y33695934D01*
X4375644Y33695934D01*
X4222106Y33542395D01*
X4167903Y33564847D01*
X3930849Y33612000D01*
X3689151Y33612000D01*
X3452097Y33564847D01*
X3228798Y33472353D01*
X3027833Y33338073D01*
X2856927Y33167167D01*
X2722647Y32966202D01*
X2630153Y32742903D01*
X2583000Y32505849D01*
X2583000Y32264151D01*
X2630153Y32027097D01*
X2722647Y31803798D01*
X2856927Y31602833D01*
X3027833Y31431927D01*
X3228798Y31297647D01*
X3452097Y31205153D01*
X3689151Y31158000D01*
X3930849Y31158000D01*
X4167903Y31205153D01*
X4391202Y31297647D01*
X4592167Y31431927D01*
X4763073Y31602833D01*
X4897353Y31803798D01*
X4989847Y32027097D01*
X5037000Y32264151D01*
X5037000Y32505849D01*
X4989847Y32742903D01*
X4967395Y32797106D01*
X6069344Y33899054D01*
X6089448Y33915552D01*
X6155304Y33995798D01*
X6204239Y34087350D01*
X6234374Y34186690D01*
X6242000Y34264119D01*
X6242000Y34264120D01*
X6244549Y34290000D01*
X6242000Y34315881D01*
X6242000Y38206076D01*
X6319886Y38238337D01*
X6458000Y38330622D01*
X6458000Y35585881D01*
X6455451Y35560000D01*
X6458000Y35534120D01*
X6465626Y35456691D01*
X6495761Y35357351D01*
X6544696Y35265798D01*
X6610552Y35185552D01*
X6630666Y35169045D01*
X11039049Y30760661D01*
X11055552Y30740552D01*
X11135798Y30674696D01*
X11227350Y30625761D01*
X11326690Y30595626D01*
X11404119Y30588000D01*
X11404121Y30588000D01*
X11429999Y30585451D01*
X11455877Y30588000D01*
X12295622Y30588000D01*
X12203337Y30449886D01*
X12107074Y30217487D01*
X12058000Y29970774D01*
X12058000Y29719226D01*
X12107074Y29472513D01*
X12203337Y29240114D01*
X12343089Y29030960D01*
X12520960Y28853089D01*
X12730114Y28713337D01*
X12808000Y28681075D01*
X12808000Y27965881D01*
X12805451Y27940000D01*
X12808000Y27914120D01*
X12815626Y27836691D01*
X12845761Y27737351D01*
X12894696Y27645798D01*
X12960552Y27565552D01*
X12980666Y27549045D01*
X15352605Y25177106D01*
X15330153Y25122903D01*
X15283000Y24885849D01*
X15283000Y24644151D01*
X15330153Y24407097D01*
X15422647Y24183798D01*
X15556927Y23982833D01*
X15727833Y23811927D01*
X15928798Y23677647D01*
X16152097Y23585153D01*
X16389151Y23538000D01*
X16630849Y23538000D01*
X16867903Y23585153D01*
X17091202Y23677647D01*
X17292167Y23811927D01*
X17463073Y23982833D01*
X17597353Y24183798D01*
X17689847Y24407097D01*
X17737000Y24644151D01*
X17737000Y24885849D01*
X17689847Y25122903D01*
X17597353Y25346202D01*
X17463073Y25547167D01*
X17292167Y25718073D01*
X17091202Y25852353D01*
X16867903Y25944847D01*
X16630849Y25992000D01*
X16389151Y25992000D01*
X16152097Y25944847D01*
X16097894Y25922395D01*
X13862000Y28158289D01*
X13862000Y28681076D01*
X13939886Y28713337D01*
X14149040Y28853089D01*
X14326911Y29030960D01*
X14466663Y29240114D01*
X14562926Y29472513D01*
X14612000Y29719226D01*
X14612000Y29970774D01*
X14562926Y30217487D01*
X14466663Y30449886D01*
X14374378Y30588000D01*
X15530757Y30588000D01*
X15422647Y30426202D01*
X15330153Y30202903D01*
X15283000Y29965849D01*
X15283000Y29724151D01*
X15330153Y29487097D01*
X15422647Y29263798D01*
X15556927Y29062833D01*
X15727833Y28891927D01*
X15928798Y28757647D01*
X16152097Y28665153D01*
X16389151Y28618000D01*
X16630849Y28618000D01*
X16867903Y28665153D01*
X16922106Y28687605D01*
X17892605Y27717106D01*
X17870153Y27662903D01*
X17823000Y27425849D01*
X17823000Y27184151D01*
X17870153Y26947097D01*
X17962647Y26723798D01*
X18096927Y26522833D01*
X18267833Y26351927D01*
X18468798Y26217647D01*
X18692097Y26125153D01*
X18923000Y26079224D01*
X18923000Y25990776D01*
X18692097Y25944847D01*
X18637894Y25922395D01*
X17667395Y26892894D01*
X17689847Y26947097D01*
X17737000Y27184151D01*
X17737000Y27425849D01*
X17689847Y27662903D01*
X17597353Y27886202D01*
X17463073Y28087167D01*
X17292167Y28258073D01*
X17091202Y28392353D01*
X16867903Y28484847D01*
X16630849Y28532000D01*
X16389151Y28532000D01*
X16152097Y28484847D01*
X15928798Y28392353D01*
X15727833Y28258073D01*
X15556927Y28087167D01*
X15422647Y27886202D01*
X15330153Y27662903D01*
X15283000Y27425849D01*
X15283000Y27184151D01*
X15330153Y26947097D01*
X15422647Y26723798D01*
X15556927Y26522833D01*
X15727833Y26351927D01*
X15928798Y26217647D01*
X16152097Y26125153D01*
X16389151Y26078000D01*
X16630849Y26078000D01*
X16867903Y26125153D01*
X16922106Y26147605D01*
X17892605Y25177106D01*
X17870153Y25122903D01*
X17823000Y24885849D01*
X17823000Y24644151D01*
X17870153Y24407097D01*
X17962647Y24183798D01*
X18096927Y23982833D01*
X18267833Y23811927D01*
X18468798Y23677647D01*
X18692097Y23585153D01*
X18923000Y23539224D01*
X18923000Y23450776D01*
X18692097Y23404847D01*
X18468798Y23312353D01*
X18267833Y23178073D01*
X18096927Y23007167D01*
X17962647Y22806202D01*
X17870153Y22582903D01*
X17823000Y22345849D01*
X17823000Y22104151D01*
X17870153Y21867097D01*
X17962647Y21643798D01*
X18096927Y21442833D01*
X18267833Y21271927D01*
X18468798Y21137647D01*
X18655088Y21060483D01*
X18436119Y20982070D01*
X18194869Y20837385D01*
X17986481Y20648414D01*
X17818963Y20422420D01*
X17698754Y20168087D01*
X17673070Y20083407D01*
X17597353Y20266202D01*
X17463073Y20467167D01*
X17292167Y20638073D01*
X17091202Y20772353D01*
X16867903Y20864847D01*
X16630849Y20912000D01*
X16389151Y20912000D01*
X16152097Y20864847D01*
X15928798Y20772353D01*
X15727833Y20638073D01*
X15556927Y20467167D01*
X15422647Y20266202D01*
X15330153Y20042903D01*
X15283000Y19805849D01*
X15283000Y19564151D01*
X15330153Y19327097D01*
X15422647Y19103798D01*
X15556927Y18902833D01*
X15727833Y18731927D01*
X15928798Y18597647D01*
X16152097Y18505153D01*
X16389151Y18458000D01*
X16630849Y18458000D01*
X16867903Y18505153D01*
X16922106Y18527605D01*
X17892605Y17557106D01*
X17870153Y17502903D01*
X17823000Y17265849D01*
X17823000Y17024151D01*
X17870153Y16787097D01*
X17962647Y16563798D01*
X18096927Y16362833D01*
X18267833Y16191927D01*
X18468798Y16057647D01*
X18692097Y15965153D01*
X18923000Y15919224D01*
X18923000Y15830776D01*
X18692097Y15784847D01*
X18637894Y15762395D01*
X18170955Y16229334D01*
X18154448Y16249448D01*
X18074202Y16315304D01*
X17982650Y16364239D01*
X17883310Y16394374D01*
X17805881Y16402000D01*
X17780000Y16404549D01*
X17754119Y16402000D01*
X17489243Y16402000D01*
X17597353Y16563798D01*
X17689847Y16787097D01*
X17737000Y17024151D01*
X17737000Y17265849D01*
X17689847Y17502903D01*
X17597353Y17726202D01*
X17463073Y17927167D01*
X17292167Y18098073D01*
X17091202Y18232353D01*
X16867903Y18324847D01*
X16630849Y18372000D01*
X16389151Y18372000D01*
X16152097Y18324847D01*
X15928798Y18232353D01*
X15727833Y18098073D01*
X15556927Y17927167D01*
X15422647Y17726202D01*
X15330153Y17502903D01*
X15283000Y17265849D01*
X15283000Y17024151D01*
X15330153Y16787097D01*
X15422647Y16563798D01*
X15530757Y16402000D01*
X15458290Y16402000D01*
X15132000Y16728290D01*
X15132000Y20101711D01*
X16097895Y21067604D01*
X16152097Y21045153D01*
X16389151Y20998000D01*
X16630849Y20998000D01*
X16867903Y21045153D01*
X17091202Y21137647D01*
X17292167Y21271927D01*
X17463073Y21442833D01*
X17597353Y21643798D01*
X17689847Y21867097D01*
X17737000Y22104151D01*
X17737000Y22345849D01*
X17689847Y22582903D01*
X17597353Y22806202D01*
X17463073Y23007167D01*
X17292167Y23178073D01*
X17091202Y23312353D01*
X16867903Y23404847D01*
X16630849Y23452000D01*
X16389151Y23452000D01*
X16152097Y23404847D01*
X15928798Y23312353D01*
X15727833Y23178073D01*
X15556927Y23007167D01*
X15422647Y22806202D01*
X15330153Y22582903D01*
X15283000Y22345849D01*
X15283000Y22104151D01*
X15330153Y21867097D01*
X15352604Y21812895D01*
X14250662Y20710951D01*
X14230553Y20694448D01*
X14173061Y20624394D01*
X14164696Y20614201D01*
X14115761Y20522649D01*
X14085626Y20423309D01*
X14075451Y20320000D01*
X14078001Y20294109D01*
X14078000Y16535881D01*
X14075451Y16510000D01*
X14078000Y16484120D01*
X14085626Y16406691D01*
X14115761Y16307351D01*
X14164696Y16215798D01*
X14230552Y16135552D01*
X14250666Y16119045D01*
X14849053Y15520656D01*
X14865552Y15500552D01*
X14945798Y15434696D01*
X15037350Y15385761D01*
X15136690Y15355626D01*
X15240000Y15345451D01*
X15265881Y15348000D01*
X15530757Y15348000D01*
X15422647Y15186202D01*
X15330153Y14962903D01*
X15283000Y14725849D01*
X15283000Y14484151D01*
X15330153Y14247097D01*
X15422647Y14023798D01*
X15556927Y13822833D01*
X15727833Y13651927D01*
X15928798Y13517647D01*
X16152097Y13425153D01*
X16389151Y13378000D01*
X16630849Y13378000D01*
X16867903Y13425153D01*
X16922106Y13447605D01*
X17892605Y12477106D01*
X17870153Y12422903D01*
X17823000Y12185849D01*
X17823000Y11944151D01*
X17870153Y11707097D01*
X17962647Y11483798D01*
X18096927Y11282833D01*
X18267833Y11111927D01*
X18468798Y10977647D01*
X18692097Y10885153D01*
X18923000Y10839224D01*
X18923000Y10750776D01*
X18692097Y10704847D01*
X18637894Y10682395D01*
X17667395Y11652894D01*
X17689847Y11707097D01*
X17737000Y11944151D01*
X17737000Y12185849D01*
X17689847Y12422903D01*
X17597353Y12646202D01*
X17463073Y12847167D01*
X17292167Y13018073D01*
X17091202Y13152353D01*
X16867903Y13244847D01*
X16630849Y13292000D01*
X16389151Y13292000D01*
X16152097Y13244847D01*
X15928798Y13152353D01*
X15727833Y13018073D01*
X15556927Y12847167D01*
X15422647Y12646202D01*
X15330153Y12422903D01*
X15283000Y12185849D01*
X15283000Y11944151D01*
X15330153Y11707097D01*
X15422647Y11483798D01*
X15556927Y11282833D01*
X15727833Y11111927D01*
X15928798Y10977647D01*
X16152097Y10885153D01*
X16389151Y10838000D01*
X16630849Y10838000D01*
X16867903Y10885153D01*
X16922106Y10907605D01*
X17892605Y9937106D01*
X17870153Y9882903D01*
X17823000Y9645849D01*
X17823000Y9404151D01*
X17870153Y9167097D01*
X17962647Y8943798D01*
X18096927Y8742833D01*
X18267833Y8571927D01*
X18468798Y8437647D01*
X18692097Y8345153D01*
X18923000Y8299224D01*
X18923000Y8210776D01*
X18692097Y8164847D01*
X18637894Y8142395D01*
X17667395Y9112894D01*
X17689847Y9167097D01*
X17737000Y9404151D01*
X17737000Y9645849D01*
X17689847Y9882903D01*
X17597353Y10106202D01*
X17463073Y10307167D01*
X17292167Y10478073D01*
X17091202Y10612353D01*
X16867903Y10704847D01*
X16630849Y10752000D01*
X16389151Y10752000D01*
X16152097Y10704847D01*
X15928798Y10612353D01*
X15727833Y10478073D01*
X15556927Y10307167D01*
X15422647Y10106202D01*
X15330153Y9882903D01*
X15283000Y9645849D01*
X15283000Y9404151D01*
X15330153Y9167097D01*
X15422647Y8943798D01*
X15556927Y8742833D01*
X15727833Y8571927D01*
X15928798Y8437647D01*
X16152097Y8345153D01*
X16389151Y8298000D01*
X16630849Y8298000D01*
X16867903Y8345153D01*
X16922106Y8367605D01*
X17892605Y7397106D01*
X17870153Y7342903D01*
X17823000Y7105849D01*
X17823000Y6864151D01*
X17870153Y6627097D01*
X17962647Y6403798D01*
X18096927Y6202833D01*
X18267833Y6031927D01*
X18468798Y5897647D01*
X18692097Y5805153D01*
X18923000Y5759224D01*
X18923000Y5670776D01*
X18692097Y5624847D01*
X18637894Y5602395D01*
X17667395Y6572894D01*
X17689847Y6627097D01*
X17737000Y6864151D01*
X17737000Y7105849D01*
X17689847Y7342903D01*
X17597353Y7566202D01*
X17463073Y7767167D01*
X17292167Y7938073D01*
X17091202Y8072353D01*
X16867903Y8164847D01*
X16630849Y8212000D01*
X16389151Y8212000D01*
X16152097Y8164847D01*
X15928798Y8072353D01*
X15727833Y7938073D01*
X15556927Y7767167D01*
X15422647Y7566202D01*
X15330153Y7342903D01*
X15283000Y7105849D01*
X15283000Y6864151D01*
X15330153Y6627097D01*
X15422647Y6403798D01*
X15556927Y6202833D01*
X15727833Y6031927D01*
X15928798Y5897647D01*
X16152097Y5805153D01*
X16389151Y5758000D01*
X16630849Y5758000D01*
X16867903Y5805153D01*
X16922106Y5827605D01*
X17892605Y4857106D01*
X17870153Y4802903D01*
X17823000Y4565849D01*
X17823000Y4324151D01*
X17870153Y4087097D01*
X17962647Y3863798D01*
X18096927Y3662833D01*
X18267833Y3491927D01*
X18468798Y3357647D01*
X18692097Y3265153D01*
X18923000Y3219224D01*
X18923000Y3130776D01*
X18692097Y3084847D01*
X18637894Y3062395D01*
X17667395Y4032894D01*
X17689847Y4087097D01*
X17737000Y4324151D01*
X17737000Y4565849D01*
X17689847Y4802903D01*
X17597353Y5026202D01*
X17463073Y5227167D01*
X17292167Y5398073D01*
X17091202Y5532353D01*
X16867903Y5624847D01*
X16630849Y5672000D01*
X16389151Y5672000D01*
X16152097Y5624847D01*
X15928798Y5532353D01*
X15727833Y5398073D01*
X15556927Y5227167D01*
X15422647Y5026202D01*
X15330153Y4802903D01*
X15283000Y4565849D01*
X15283000Y4324151D01*
X15330153Y4087097D01*
X15422647Y3863798D01*
X15556927Y3662833D01*
X15727833Y3491927D01*
X15928798Y3357647D01*
X16152097Y3265153D01*
X16389151Y3218000D01*
X16630849Y3218000D01*
X16867903Y3265153D01*
X16922106Y3287605D01*
X17892605Y2317106D01*
X17870153Y2262903D01*
X17823000Y2025849D01*
X17823000Y1784151D01*
X17870153Y1547097D01*
X17962647Y1323798D01*
X18096927Y1122833D01*
X18267833Y951927D01*
X18468798Y817647D01*
X18603141Y762000D01*
X4675480Y762000D01*
X4873519Y941586D01*
X5041037Y1167580D01*
X5161246Y1421913D01*
X5201904Y1555961D01*
X5079915Y1778000D01*
X3937000Y1778000D01*
X3937000Y1758000D01*
X3683000Y1758000D01*
X3683000Y1778000D01*
X2540085Y1778000D01*
X2418096Y1555961D01*
X2458754Y1421913D01*
X2578963Y1167580D01*
X2746481Y941586D01*
X2944520Y762000D01*
X452000Y762000D01*
X452000Y3270346D01*
X656119Y3147930D01*
X920960Y3053091D01*
X1143000Y3174376D01*
X1143000Y4318000D01*
X1123000Y4318000D01*
X1123000Y4572000D01*
X1143000Y4572000D01*
X1143000Y4592000D01*
X1397000Y4592000D01*
X1397000Y4572000D01*
X1417000Y4572000D01*
X1417000Y4318000D01*
X1397000Y4318000D01*
X1397000Y3174376D01*
X1619040Y3053091D01*
X1883881Y3147930D01*
X2125131Y3292615D01*
X2333519Y3481586D01*
X2501037Y3707580D01*
X2621246Y3961913D01*
X2646930Y4046593D01*
X2722647Y3863798D01*
X2856927Y3662833D01*
X3027833Y3491927D01*
X3228798Y3357647D01*
X3415088Y3280483D01*
X3196119Y3202070D01*
X2954869Y3057385D01*
X2746481Y2868414D01*
X2578963Y2642420D01*
X2458754Y2388087D01*
X2418096Y2254039D01*
X2540085Y2032000D01*
X3683000Y2032000D01*
X3683000Y2052000D01*
X3937000Y2052000D01*
X3937000Y2032000D01*
X5079915Y2032000D01*
X5201904Y2254039D01*
X5161246Y2388087D01*
X5041037Y2642420D01*
X4873519Y2868414D01*
X4665131Y3057385D01*
X4423881Y3202070D01*
X4204912Y3280483D01*
X4391202Y3357647D01*
X4592167Y3491927D01*
X4763073Y3662833D01*
X4897353Y3863798D01*
X4989847Y4087097D01*
X5037000Y4324151D01*
X5037000Y4565849D01*
X4989847Y4802903D01*
X4897353Y5026202D01*
X4763073Y5227167D01*
X4592167Y5398073D01*
X4391202Y5532353D01*
X4167903Y5624847D01*
X3930849Y5672000D01*
X3689151Y5672000D01*
X3452097Y5624847D01*
X3397894Y5602395D01*
X2427395Y6572894D01*
X2449847Y6627097D01*
X2497000Y6864151D01*
X2497000Y7105849D01*
X2449847Y7342903D01*
X2357353Y7566202D01*
X2223073Y7767167D01*
X2052167Y7938073D01*
X1851202Y8072353D01*
X1627903Y8164847D01*
X1390849Y8212000D01*
X1149151Y8212000D01*
X912097Y8164847D01*
X688798Y8072353D01*
X487833Y7938073D01*
X452000Y7902240D01*
X452000Y8607760D01*
X487833Y8571927D01*
X688798Y8437647D01*
X912097Y8345153D01*
X1149151Y8298000D01*
X1390849Y8298000D01*
X1627903Y8345153D01*
X1682106Y8367605D01*
X2652605Y7397106D01*
X2630153Y7342903D01*
X2583000Y7105849D01*
X2583000Y6864151D01*
X2630153Y6627097D01*
X2722647Y6403798D01*
X2856927Y6202833D01*
X3027833Y6031927D01*
X3228798Y5897647D01*
X3452097Y5805153D01*
X3689151Y5758000D01*
X3930849Y5758000D01*
X4167903Y5805153D01*
X4391202Y5897647D01*
X4592167Y6031927D01*
X4763073Y6202833D01*
X4897353Y6403798D01*
X4989847Y6627097D01*
X5037000Y6864151D01*
X5037000Y7105849D01*
X4989847Y7342903D01*
X4897353Y7566202D01*
X4763073Y7767167D01*
X4592167Y7938073D01*
X4391202Y8072353D01*
X4167903Y8164847D01*
X3930849Y8212000D01*
X3689151Y8212000D01*
X3452097Y8164847D01*
X3397894Y8142395D01*
X2427395Y9112894D01*
X2449847Y9167097D01*
X2497000Y9404151D01*
X2497000Y9645849D01*
X2449847Y9882903D01*
X2357353Y10106202D01*
X2223073Y10307167D01*
X2052167Y10478073D01*
X1851202Y10612353D01*
X1627903Y10704847D01*
X1390849Y10752000D01*
X1149151Y10752000D01*
X912097Y10704847D01*
X688798Y10612353D01*
X487833Y10478073D01*
X452000Y10442240D01*
X452000Y11147760D01*
X487833Y11111927D01*
X688798Y10977647D01*
X912097Y10885153D01*
X1149151Y10838000D01*
X1390849Y10838000D01*
X1627903Y10885153D01*
X1682106Y10907605D01*
X2652605Y9937106D01*
X2630153Y9882903D01*
X2583000Y9645849D01*
X2583000Y9404151D01*
X2630153Y9167097D01*
X2722647Y8943798D01*
X2856927Y8742833D01*
X3027833Y8571927D01*
X3228798Y8437647D01*
X3452097Y8345153D01*
X3689151Y8298000D01*
X3930849Y8298000D01*
X4167903Y8345153D01*
X4391202Y8437647D01*
X4592167Y8571927D01*
X4763073Y8742833D01*
X4897353Y8943798D01*
X4989847Y9167097D01*
X5037000Y9404151D01*
X5037000Y9645849D01*
X4989847Y9882903D01*
X4897353Y10106202D01*
X4763073Y10307167D01*
X4592167Y10478073D01*
X4391202Y10612353D01*
X4167903Y10704847D01*
X3930849Y10752000D01*
X3689151Y10752000D01*
X3452097Y10704847D01*
X3397894Y10682395D01*
X2427395Y11652894D01*
X2449847Y11707097D01*
X2497000Y11944151D01*
X2497000Y12185849D01*
X2449847Y12422903D01*
X2357353Y12646202D01*
X2223073Y12847167D01*
X2052167Y13018073D01*
X1851202Y13152353D01*
X1627903Y13244847D01*
X1390849Y13292000D01*
X1149151Y13292000D01*
X912097Y13244847D01*
X688798Y13152353D01*
X487833Y13018073D01*
X452000Y12982240D01*
X452000Y13687760D01*
X487833Y13651927D01*
X688798Y13517647D01*
X912097Y13425153D01*
X1149151Y13378000D01*
X1390849Y13378000D01*
X1627903Y13425153D01*
X1682106Y13447605D01*
X2652605Y12477106D01*
X2630153Y12422903D01*
X2583000Y12185849D01*
X2583000Y11944151D01*
X2630153Y11707097D01*
X2722647Y11483798D01*
X2856927Y11282833D01*
X3027833Y11111927D01*
X3228798Y10977647D01*
X3452097Y10885153D01*
X3689151Y10838000D01*
X3930849Y10838000D01*
X4167903Y10885153D01*
X4391202Y10977647D01*
X4592167Y11111927D01*
X4763073Y11282833D01*
X4897353Y11483798D01*
X4989847Y11707097D01*
X5037000Y11944151D01*
X5037000Y12185849D01*
X4989847Y12422903D01*
X4897353Y12646202D01*
X4763073Y12847167D01*
X4592167Y13018073D01*
X4391202Y13152353D01*
X4167903Y13244847D01*
X3930849Y13292000D01*
X3689151Y13292000D01*
X3452097Y13244847D01*
X3397894Y13222395D01*
X2427395Y14192894D01*
X2449847Y14247097D01*
X2497000Y14484151D01*
X2497000Y14725849D01*
X2449847Y14962903D01*
X2357353Y15186202D01*
X2223073Y15387167D01*
X2052167Y15558073D01*
X1851202Y15692353D01*
X1627903Y15784847D01*
X1390849Y15832000D01*
X1149151Y15832000D01*
X912097Y15784847D01*
X688798Y15692353D01*
X487833Y15558073D01*
X452000Y15522240D01*
X452000Y16227760D01*
X487833Y16191927D01*
X688798Y16057647D01*
X912097Y15965153D01*
X1149151Y15918000D01*
X1390849Y15918000D01*
X1627903Y15965153D01*
X1682106Y15987605D01*
X2652605Y15017106D01*
X2630153Y14962903D01*
X2583000Y14725849D01*
X2583000Y14484151D01*
X2630153Y14247097D01*
X2722647Y14023798D01*
X2856927Y13822833D01*
X3027833Y13651927D01*
X3228798Y13517647D01*
X3452097Y13425153D01*
X3689151Y13378000D01*
X3930849Y13378000D01*
X4167903Y13425153D01*
X4391202Y13517647D01*
X4592167Y13651927D01*
X4763073Y13822833D01*
X4897353Y14023798D01*
X4989847Y14247097D01*
X5037000Y14484151D01*
X5037000Y14725849D01*
X4989847Y14962903D01*
X4897353Y15186202D01*
X4763073Y15387167D01*
X4592167Y15558073D01*
X4391202Y15692353D01*
X4167903Y15784847D01*
X3930849Y15832000D01*
X3689151Y15832000D01*
X3452097Y15784847D01*
X3397894Y15762395D01*
X2427395Y16732894D01*
X2449847Y16787097D01*
X2497000Y17024151D01*
X2497000Y17265849D01*
X2449847Y17502903D01*
X2357353Y17726202D01*
X2223073Y17927167D01*
X2052167Y18098073D01*
X1851202Y18232353D01*
X1627903Y18324847D01*
X1390849Y18372000D01*
X1149151Y18372000D01*
X912097Y18324847D01*
X688798Y18232353D01*
X487833Y18098073D01*
X452000Y18062240D01*
X452000Y18767760D01*
X487833Y18731927D01*
X688798Y18597647D01*
X912097Y18505153D01*
X1149151Y18458000D01*
X1390849Y18458000D01*
X1627903Y18505153D01*
X1682106Y18527605D01*
X2652605Y17557106D01*
X2630153Y17502903D01*
X2583000Y17265849D01*
X2583000Y17024151D01*
X2630153Y16787097D01*
X2722647Y16563798D01*
X2856927Y16362833D01*
X3027833Y16191927D01*
X3228798Y16057647D01*
X3452097Y15965153D01*
X3689151Y15918000D01*
X3930849Y15918000D01*
X4167903Y15965153D01*
X4391202Y16057647D01*
X4592167Y16191927D01*
X4763073Y16362833D01*
X4897353Y16563798D01*
X4989847Y16787097D01*
X5037000Y17024151D01*
X5037000Y17265849D01*
X4989847Y17502903D01*
X4897353Y17726202D01*
X4763073Y17927167D01*
X4592167Y18098073D01*
X4391202Y18232353D01*
X4167903Y18324847D01*
X3930849Y18372000D01*
X3689151Y18372000D01*
X3452097Y18324847D01*
X3397894Y18302395D01*
X2427395Y19272894D01*
X2449847Y19327097D01*
X2497000Y19564151D01*
X2497000Y19805849D01*
X2449847Y20042903D01*
X2357353Y20266202D01*
X2223073Y20467167D01*
X2052167Y20638073D01*
X1851202Y20772353D01*
X1627903Y20864847D01*
X1390849Y20912000D01*
X1149151Y20912000D01*
X912097Y20864847D01*
X688798Y20772353D01*
X487833Y20638073D01*
X452000Y20602240D01*
X452000Y21307760D01*
X487833Y21271927D01*
X688798Y21137647D01*
X912097Y21045153D01*
X1149151Y20998000D01*
X1390849Y20998000D01*
X1627903Y21045153D01*
X1682106Y21067605D01*
X2652605Y20097106D01*
X2630153Y20042903D01*
X2583000Y19805849D01*
X2583000Y19564151D01*
X2630153Y19327097D01*
X2722647Y19103798D01*
X2856927Y18902833D01*
X3027833Y18731927D01*
X3228798Y18597647D01*
X3452097Y18505153D01*
X3689151Y18458000D01*
X3930849Y18458000D01*
X4167903Y18505153D01*
X4391202Y18597647D01*
X4592167Y18731927D01*
X4763073Y18902833D01*
X4897353Y19103798D01*
X4989847Y19327097D01*
X5037000Y19564151D01*
X5037000Y19805849D01*
X4989847Y20042903D01*
X4897353Y20266202D01*
X4763073Y20467167D01*
X4592167Y20638073D01*
X4391202Y20772353D01*
X4167903Y20864847D01*
X3930849Y20912000D01*
X3689151Y20912000D01*
X3452097Y20864847D01*
X3397894Y20842395D01*
X2427395Y21812894D01*
X2449847Y21867097D01*
X2497000Y22104151D01*
X2497000Y22345849D01*
X2449847Y22582903D01*
X2357353Y22806202D01*
X2223073Y23007167D01*
X2052167Y23178073D01*
X1851202Y23312353D01*
X1627903Y23404847D01*
X1390849Y23452000D01*
X1149151Y23452000D01*
X912097Y23404847D01*
X688798Y23312353D01*
X487833Y23178073D01*
X452000Y23142240D01*
X452000Y23847760D01*
X487833Y23811927D01*
X688798Y23677647D01*
X912097Y23585153D01*
X1149151Y23538000D01*
X1390849Y23538000D01*
X1627903Y23585153D01*
X1682106Y23607605D01*
X2652605Y22637106D01*
X2630153Y22582903D01*
X2583000Y22345849D01*
X2583000Y22104151D01*
X2630153Y21867097D01*
X2722647Y21643798D01*
X2856927Y21442833D01*
X3027833Y21271927D01*
X3228798Y21137647D01*
X3452097Y21045153D01*
X3689151Y20998000D01*
X3930849Y20998000D01*
X4167903Y21045153D01*
X4391202Y21137647D01*
X4592167Y21271927D01*
X4763073Y21442833D01*
X4897353Y21643798D01*
X4989847Y21867097D01*
X5037000Y22104151D01*
X5037000Y22345849D01*
X4989847Y22582903D01*
X4897353Y22806202D01*
X4763073Y23007167D01*
X4592167Y23178073D01*
X4391202Y23312353D01*
X4167903Y23404847D01*
X3930849Y23452000D01*
X3689151Y23452000D01*
X3452097Y23404847D01*
X3397894Y23382395D01*
X2427395Y24352894D01*
X2449847Y24407097D01*
X2497000Y24644151D01*
X2497000Y24885849D01*
X2449847Y25122903D01*
X2357353Y25346202D01*
X2223073Y25547167D01*
X2052167Y25718073D01*
X1851202Y25852353D01*
X1627903Y25944847D01*
X1390849Y25992000D01*
X1149151Y25992000D01*
X912097Y25944847D01*
X688798Y25852353D01*
X487833Y25718073D01*
X452000Y25682240D01*
X452000Y26387760D01*
X487833Y26351927D01*
X688798Y26217647D01*
X912097Y26125153D01*
X1149151Y26078000D01*
X1390849Y26078000D01*
X1627903Y26125153D01*
X1682106Y26147605D01*
X2652605Y25177106D01*
X2630153Y25122903D01*
X2583000Y24885849D01*
X2583000Y24644151D01*
X2630153Y24407097D01*
X2722647Y24183798D01*
X2856927Y23982833D01*
X3027833Y23811927D01*
X3228798Y23677647D01*
X3452097Y23585153D01*
X3689151Y23538000D01*
X3930849Y23538000D01*
X4167903Y23585153D01*
X4391202Y23677647D01*
X4592167Y23811927D01*
X4763073Y23982833D01*
X4897353Y24183798D01*
X4989847Y24407097D01*
X5037000Y24644151D01*
X5037000Y24885849D01*
X4989847Y25122903D01*
X4897353Y25346202D01*
X4763073Y25547167D01*
X4592167Y25718073D01*
X4391202Y25852353D01*
X4167903Y25944847D01*
X3930849Y25992000D01*
X3689151Y25992000D01*
X3452097Y25944847D01*
X3397894Y25922395D01*
X2427395Y26892894D01*
X2449847Y26947097D01*
X2497000Y27184151D01*
X2497000Y27425849D01*
X2449847Y27662903D01*
X2357353Y27886202D01*
X2223073Y28087167D01*
X2052167Y28258073D01*
X1851202Y28392353D01*
X1627903Y28484847D01*
X1390849Y28532000D01*
X1149151Y28532000D01*
X912097Y28484847D01*
X688798Y28392353D01*
X487833Y28258073D01*
X452000Y28222240D01*
X452000Y28927760D01*
X487833Y28891927D01*
X688798Y28757647D01*
X912097Y28665153D01*
X1149151Y28618000D01*
X1390849Y28618000D01*
X1627903Y28665153D01*
X1682106Y28687605D01*
X2652605Y27717106D01*
X2630153Y27662903D01*
X2583000Y27425849D01*
X2583000Y27184151D01*
X2630153Y26947097D01*
X2722647Y26723798D01*
X2856927Y26522833D01*
X3027833Y26351927D01*
X3228798Y26217647D01*
X3452097Y26125153D01*
X3689151Y26078000D01*
X3930849Y26078000D01*
X4167903Y26125153D01*
X4391202Y26217647D01*
X4592167Y26351927D01*
X4763073Y26522833D01*
X4897353Y26723798D01*
X4989847Y26947097D01*
X5037000Y27184151D01*
X5037000Y27425849D01*
X4989847Y27662903D01*
X4897353Y27886202D01*
X4763073Y28087167D01*
X4592167Y28258073D01*
X4391202Y28392353D01*
X4167903Y28484847D01*
X3930849Y28532000D01*
X3689151Y28532000D01*
X3452097Y28484847D01*
X3397894Y28462395D01*
X2427395Y29432894D01*
X2449847Y29487097D01*
X2497000Y29724151D01*
X2497000Y29965849D01*
X2449847Y30202903D01*
X2357353Y30426202D01*
X2223073Y30627167D01*
X2052167Y30798073D01*
X1851202Y30932353D01*
X1627903Y31024847D01*
X1390849Y31072000D01*
X1149151Y31072000D01*
X912097Y31024847D01*
X688798Y30932353D01*
X487833Y30798073D01*
X452000Y30762240D01*
X452000Y31157707D01*
X470000Y31155934D01*
X1753777Y31155934D01*
X2652605Y30257106D01*
X2630153Y30202903D01*
X2583000Y29965849D01*
X2583000Y29724151D01*
X2630153Y29487097D01*
X2722647Y29263798D01*
X2856927Y29062833D01*
X3027833Y28891927D01*
X3228798Y28757647D01*
X3452097Y28665153D01*
X3689151Y28618000D01*
X3930849Y28618000D01*
X4167903Y28665153D01*
X4391202Y28757647D01*
X4592167Y28891927D01*
X4763073Y29062833D01*
X4897353Y29263798D01*
X4989847Y29487097D01*
X5037000Y29724151D01*
X5037000Y29965849D01*
X4989847Y30202903D01*
X4897353Y30426202D01*
X4763073Y30627167D01*
X4592167Y30798073D01*
X4391202Y30932353D01*
X4167903Y31024847D01*
X3930849Y31072000D01*
X3689151Y31072000D01*
X3452097Y31024847D01*
X3397894Y31002395D01*
X2499066Y31901223D01*
X2499066Y33185000D01*
X2490822Y33268707D01*
X2466405Y33349196D01*
X2426755Y33423376D01*
X2373395Y33488395D01*
X2308376Y33541755D01*
X2234196Y33581405D01*
X2153707Y33605822D01*
X2070000Y33614066D01*
X470000Y33614066D01*
X452000Y33612293D01*
X452000Y43688000D01*
X1895934Y43688000D01*
X1895934Y42330000D01*
G37*
G04 #@! TD.AperFunction*
D17*
X18923000Y19558000D02*
X18903000Y19558000D01*
X18903000Y19812000D01*
X18923000Y19812000D01*
X18923000Y19558000D01*
G04 #@! TA.AperFunction,Conductor*
D18*
G36*
X18923000Y19558000D02*
G01*
X18903000Y19558000D01*
X18903000Y19812000D01*
X18923000Y19812000D01*
X18923000Y19558000D01*
G37*
G04 #@! TD.AperFunction*
D17*
X12055934Y42330000D02*
X12064178Y42246293D01*
X12088595Y42165804D01*
X12128245Y42091624D01*
X12181605Y42026605D01*
X12246624Y41973245D01*
X12320804Y41933595D01*
X12401293Y41909178D01*
X12485000Y41900934D01*
X14185000Y41900934D01*
X14268707Y41909178D01*
X14349196Y41933595D01*
X14423376Y41973245D01*
X14488395Y42026605D01*
X14541755Y42091624D01*
X14581405Y42165804D01*
X14605822Y42246293D01*
X14614066Y42330000D01*
X14614066Y42973456D01*
X14647074Y42807513D01*
X14743337Y42575114D01*
X14883089Y42365960D01*
X15060960Y42188089D01*
X15270114Y42048337D01*
X15502513Y41952074D01*
X15749226Y41903000D01*
X16000774Y41903000D01*
X16247487Y41952074D01*
X16479886Y42048337D01*
X16689040Y42188089D01*
X16866911Y42365960D01*
X17006663Y42575114D01*
X17036197Y42646416D01*
X17070843Y42548748D01*
X17219822Y42298645D01*
X17414731Y42082412D01*
X17648080Y41908359D01*
X17910901Y41783175D01*
X18058110Y41738524D01*
X18288000Y41859845D01*
X18288000Y43053000D01*
X18268000Y43053000D01*
X18268000Y43307000D01*
X18288000Y43307000D01*
X18288000Y43327000D01*
X18542000Y43327000D01*
X18542000Y43307000D01*
X18562000Y43307000D01*
X18562000Y43053000D01*
X18542000Y43053000D01*
X18542000Y41859845D01*
X18771890Y41738524D01*
X18919099Y41783175D01*
X18923000Y41785033D01*
X18923000Y40764967D01*
X18919099Y40766825D01*
X18771890Y40811476D01*
X18542000Y40690155D01*
X18542000Y39497000D01*
X18562000Y39497000D01*
X18562000Y39243000D01*
X18542000Y39243000D01*
X18542000Y38049845D01*
X18771890Y37928524D01*
X18919099Y37973175D01*
X18923000Y37975033D01*
X18923000Y36150776D01*
X18692097Y36104847D01*
X18468798Y36012353D01*
X18267833Y35878073D01*
X18096927Y35707167D01*
X17962647Y35506202D01*
X17870153Y35282903D01*
X17823000Y35045849D01*
X17823000Y34804151D01*
X17835944Y34739077D01*
X16695924Y33599056D01*
X16630849Y33612000D01*
X16389151Y33612000D01*
X16152097Y33564847D01*
X15928798Y33472353D01*
X15727833Y33338073D01*
X15556927Y33167167D01*
X15520066Y33112000D01*
X14614066Y33112000D01*
X14614066Y33235000D01*
X14605822Y33318707D01*
X14581405Y33399196D01*
X14541755Y33473376D01*
X14488395Y33538395D01*
X14423376Y33591755D01*
X14349196Y33631405D01*
X14268707Y33655822D01*
X14185000Y33664066D01*
X14062000Y33664066D01*
X14062000Y38090934D01*
X14185000Y38090934D01*
X14268707Y38099178D01*
X14349196Y38123595D01*
X14423376Y38163245D01*
X14488395Y38216605D01*
X14541755Y38281624D01*
X14581405Y38355804D01*
X14605822Y38436293D01*
X14614066Y38520000D01*
X14614066Y39163456D01*
X14647074Y38997513D01*
X14743337Y38765114D01*
X14883089Y38555960D01*
X15060960Y38378089D01*
X15270114Y38238337D01*
X15502513Y38142074D01*
X15749226Y38093000D01*
X16000774Y38093000D01*
X16247487Y38142074D01*
X16479886Y38238337D01*
X16689040Y38378089D01*
X16866911Y38555960D01*
X17006663Y38765114D01*
X17036197Y38836416D01*
X17070843Y38738748D01*
X17219822Y38488645D01*
X17414731Y38272412D01*
X17648080Y38098359D01*
X17910901Y37973175D01*
X18058110Y37928524D01*
X18288000Y38049845D01*
X18288000Y39243000D01*
X18268000Y39243000D01*
X18268000Y39497000D01*
X18288000Y39497000D01*
X18288000Y40690155D01*
X18058110Y40811476D01*
X17910901Y40766825D01*
X17648080Y40641641D01*
X17414731Y40467588D01*
X17219822Y40251355D01*
X17070843Y40001252D01*
X17036197Y39903584D01*
X17006663Y39974886D01*
X16866911Y40184040D01*
X16689040Y40361911D01*
X16479886Y40501663D01*
X16247487Y40597926D01*
X16000774Y40647000D01*
X15749226Y40647000D01*
X15502513Y40597926D01*
X15270114Y40501663D01*
X15060960Y40361911D01*
X14883089Y40184040D01*
X14743337Y39974886D01*
X14647074Y39742487D01*
X14614066Y39576544D01*
X14614066Y40220000D01*
X14605822Y40303707D01*
X14581405Y40384196D01*
X14541755Y40458376D01*
X14488395Y40523395D01*
X14423376Y40576755D01*
X14349196Y40616405D01*
X14268707Y40640822D01*
X14185000Y40649066D01*
X12485000Y40649066D01*
X12401293Y40640822D01*
X12320804Y40616405D01*
X12246624Y40576755D01*
X12181605Y40523395D01*
X12128245Y40458376D01*
X12088595Y40384196D01*
X12064178Y40303707D01*
X12055934Y40220000D01*
X12055934Y38520000D01*
X12064178Y38436293D01*
X12088595Y38355804D01*
X12128245Y38281624D01*
X12181605Y38216605D01*
X12246624Y38163245D01*
X12320804Y38123595D01*
X12401293Y38099178D01*
X12485000Y38090934D01*
X12608000Y38090934D01*
X12608001Y33664066D01*
X12485000Y33664066D01*
X12401293Y33655822D01*
X12320804Y33631405D01*
X12246624Y33591755D01*
X12181605Y33538395D01*
X12128245Y33473376D01*
X12088595Y33399196D01*
X12064178Y33318707D01*
X12055934Y33235000D01*
X12055934Y31642000D01*
X11648290Y31642000D01*
X7512000Y35778289D01*
X7512000Y38086966D01*
X7750901Y37973175D01*
X7898110Y37928524D01*
X8128000Y38049845D01*
X8128000Y39243000D01*
X8382000Y39243000D01*
X8382000Y38049845D01*
X8611890Y37928524D01*
X8759099Y37973175D01*
X9021920Y38098359D01*
X9255269Y38272412D01*
X9450178Y38488645D01*
X9599157Y38738748D01*
X9696481Y39013109D01*
X9575814Y39243000D01*
X8382000Y39243000D01*
X8128000Y39243000D01*
X8108000Y39243000D01*
X8108000Y39497000D01*
X8128000Y39497000D01*
X8128000Y40690155D01*
X8382000Y40690155D01*
X8382000Y39497000D01*
X9575814Y39497000D01*
X9696481Y39726891D01*
X9599157Y40001252D01*
X9450178Y40251355D01*
X9255269Y40467588D01*
X9021920Y40641641D01*
X8759099Y40766825D01*
X8611890Y40811476D01*
X8382000Y40690155D01*
X8128000Y40690155D01*
X7898110Y40811476D01*
X7750901Y40766825D01*
X7512000Y40653034D01*
X7512000Y41884120D01*
X7513208Y41896390D01*
X7750901Y41783175D01*
X7898110Y41738524D01*
X8128000Y41859845D01*
X8128000Y43053000D01*
X8382000Y43053000D01*
X8382000Y41859845D01*
X8611890Y41738524D01*
X8759099Y41783175D01*
X9021920Y41908359D01*
X9255269Y42082412D01*
X9450178Y42298645D01*
X9599157Y42548748D01*
X9696481Y42823109D01*
X9575814Y43053000D01*
X8382000Y43053000D01*
X8128000Y43053000D01*
X8108000Y43053000D01*
X8108000Y43307000D01*
X8128000Y43307000D01*
X8128000Y43327000D01*
X8382000Y43327000D01*
X8382000Y43307000D01*
X9575814Y43307000D01*
X9696481Y43536891D01*
X9642878Y43688000D01*
X12055934Y43688000D01*
X12055934Y42330000D01*
G04 #@! TA.AperFunction,Conductor*
D18*
G36*
X12055934Y42330000D02*
G01*
X12064178Y42246293D01*
X12088595Y42165804D01*
X12128245Y42091624D01*
X12181605Y42026605D01*
X12246624Y41973245D01*
X12320804Y41933595D01*
X12401293Y41909178D01*
X12485000Y41900934D01*
X14185000Y41900934D01*
X14268707Y41909178D01*
X14349196Y41933595D01*
X14423376Y41973245D01*
X14488395Y42026605D01*
X14541755Y42091624D01*
X14581405Y42165804D01*
X14605822Y42246293D01*
X14614066Y42330000D01*
X14614066Y42973456D01*
X14647074Y42807513D01*
X14743337Y42575114D01*
X14883089Y42365960D01*
X15060960Y42188089D01*
X15270114Y42048337D01*
X15502513Y41952074D01*
X15749226Y41903000D01*
X16000774Y41903000D01*
X16247487Y41952074D01*
X16479886Y42048337D01*
X16689040Y42188089D01*
X16866911Y42365960D01*
X17006663Y42575114D01*
X17036197Y42646416D01*
X17070843Y42548748D01*
X17219822Y42298645D01*
X17414731Y42082412D01*
X17648080Y41908359D01*
X17910901Y41783175D01*
X18058110Y41738524D01*
X18288000Y41859845D01*
X18288000Y43053000D01*
X18268000Y43053000D01*
X18268000Y43307000D01*
X18288000Y43307000D01*
X18288000Y43327000D01*
X18542000Y43327000D01*
X18542000Y43307000D01*
X18562000Y43307000D01*
X18562000Y43053000D01*
X18542000Y43053000D01*
X18542000Y41859845D01*
X18771890Y41738524D01*
X18919099Y41783175D01*
X18923000Y41785033D01*
X18923000Y40764967D01*
X18919099Y40766825D01*
X18771890Y40811476D01*
X18542000Y40690155D01*
X18542000Y39497000D01*
X18562000Y39497000D01*
X18562000Y39243000D01*
X18542000Y39243000D01*
X18542000Y38049845D01*
X18771890Y37928524D01*
X18919099Y37973175D01*
X18923000Y37975033D01*
X18923000Y36150776D01*
X18692097Y36104847D01*
X18468798Y36012353D01*
X18267833Y35878073D01*
X18096927Y35707167D01*
X17962647Y35506202D01*
X17870153Y35282903D01*
X17823000Y35045849D01*
X17823000Y34804151D01*
X17835944Y34739077D01*
X16695924Y33599056D01*
X16630849Y33612000D01*
X16389151Y33612000D01*
X16152097Y33564847D01*
X15928798Y33472353D01*
X15727833Y33338073D01*
X15556927Y33167167D01*
X15520066Y33112000D01*
X14614066Y33112000D01*
X14614066Y33235000D01*
X14605822Y33318707D01*
X14581405Y33399196D01*
X14541755Y33473376D01*
X14488395Y33538395D01*
X14423376Y33591755D01*
X14349196Y33631405D01*
X14268707Y33655822D01*
X14185000Y33664066D01*
X14062000Y33664066D01*
X14062000Y38090934D01*
X14185000Y38090934D01*
X14268707Y38099178D01*
X14349196Y38123595D01*
X14423376Y38163245D01*
X14488395Y38216605D01*
X14541755Y38281624D01*
X14581405Y38355804D01*
X14605822Y38436293D01*
X14614066Y38520000D01*
X14614066Y39163456D01*
X14647074Y38997513D01*
X14743337Y38765114D01*
X14883089Y38555960D01*
X15060960Y38378089D01*
X15270114Y38238337D01*
X15502513Y38142074D01*
X15749226Y38093000D01*
X16000774Y38093000D01*
X16247487Y38142074D01*
X16479886Y38238337D01*
X16689040Y38378089D01*
X16866911Y38555960D01*
X17006663Y38765114D01*
X17036197Y38836416D01*
X17070843Y38738748D01*
X17219822Y38488645D01*
X17414731Y38272412D01*
X17648080Y38098359D01*
X17910901Y37973175D01*
X18058110Y37928524D01*
X18288000Y38049845D01*
X18288000Y39243000D01*
X18268000Y39243000D01*
X18268000Y39497000D01*
X18288000Y39497000D01*
X18288000Y40690155D01*
X18058110Y40811476D01*
X17910901Y40766825D01*
X17648080Y40641641D01*
X17414731Y40467588D01*
X17219822Y40251355D01*
X17070843Y40001252D01*
X17036197Y39903584D01*
X17006663Y39974886D01*
X16866911Y40184040D01*
X16689040Y40361911D01*
X16479886Y40501663D01*
X16247487Y40597926D01*
X16000774Y40647000D01*
X15749226Y40647000D01*
X15502513Y40597926D01*
X15270114Y40501663D01*
X15060960Y40361911D01*
X14883089Y40184040D01*
X14743337Y39974886D01*
X14647074Y39742487D01*
X14614066Y39576544D01*
X14614066Y40220000D01*
X14605822Y40303707D01*
X14581405Y40384196D01*
X14541755Y40458376D01*
X14488395Y40523395D01*
X14423376Y40576755D01*
X14349196Y40616405D01*
X14268707Y40640822D01*
X14185000Y40649066D01*
X12485000Y40649066D01*
X12401293Y40640822D01*
X12320804Y40616405D01*
X12246624Y40576755D01*
X12181605Y40523395D01*
X12128245Y40458376D01*
X12088595Y40384196D01*
X12064178Y40303707D01*
X12055934Y40220000D01*
X12055934Y38520000D01*
X12064178Y38436293D01*
X12088595Y38355804D01*
X12128245Y38281624D01*
X12181605Y38216605D01*
X12246624Y38163245D01*
X12320804Y38123595D01*
X12401293Y38099178D01*
X12485000Y38090934D01*
X12608000Y38090934D01*
X12608001Y33664066D01*
X12485000Y33664066D01*
X12401293Y33655822D01*
X12320804Y33631405D01*
X12246624Y33591755D01*
X12181605Y33538395D01*
X12128245Y33473376D01*
X12088595Y33399196D01*
X12064178Y33318707D01*
X12055934Y33235000D01*
X12055934Y31642000D01*
X11648290Y31642000D01*
X7512000Y35778289D01*
X7512000Y38086966D01*
X7750901Y37973175D01*
X7898110Y37928524D01*
X8128000Y38049845D01*
X8128000Y39243000D01*
X8382000Y39243000D01*
X8382000Y38049845D01*
X8611890Y37928524D01*
X8759099Y37973175D01*
X9021920Y38098359D01*
X9255269Y38272412D01*
X9450178Y38488645D01*
X9599157Y38738748D01*
X9696481Y39013109D01*
X9575814Y39243000D01*
X8382000Y39243000D01*
X8128000Y39243000D01*
X8108000Y39243000D01*
X8108000Y39497000D01*
X8128000Y39497000D01*
X8128000Y40690155D01*
X8382000Y40690155D01*
X8382000Y39497000D01*
X9575814Y39497000D01*
X9696481Y39726891D01*
X9599157Y40001252D01*
X9450178Y40251355D01*
X9255269Y40467588D01*
X9021920Y40641641D01*
X8759099Y40766825D01*
X8611890Y40811476D01*
X8382000Y40690155D01*
X8128000Y40690155D01*
X7898110Y40811476D01*
X7750901Y40766825D01*
X7512000Y40653034D01*
X7512000Y41884120D01*
X7513208Y41896390D01*
X7750901Y41783175D01*
X7898110Y41738524D01*
X8128000Y41859845D01*
X8128000Y43053000D01*
X8382000Y43053000D01*
X8382000Y41859845D01*
X8611890Y41738524D01*
X8759099Y41783175D01*
X9021920Y41908359D01*
X9255269Y42082412D01*
X9450178Y42298645D01*
X9599157Y42548748D01*
X9696481Y42823109D01*
X9575814Y43053000D01*
X8382000Y43053000D01*
X8128000Y43053000D01*
X8108000Y43053000D01*
X8108000Y43307000D01*
X8128000Y43307000D01*
X8128000Y43327000D01*
X8382000Y43327000D01*
X8382000Y43307000D01*
X9575814Y43307000D01*
X9696481Y43536891D01*
X9642878Y43688000D01*
X12055934Y43688000D01*
X12055934Y42330000D01*
G37*
G04 #@! TD.AperFunction*
M02*
