G04 #@! TF.GenerationSoftware,KiCad,Pcbnew,(5.1.8)-1*
G04 #@! TF.CreationDate,2022-11-25T20:18:31+09:00*
G04 #@! TF.ProjectId,MZ80CGROM,4d5a3830-4347-4524-9f4d-2e6b69636164,rev?*
G04 #@! TF.SameCoordinates,PX48ab840PY9157080*
G04 #@! TF.FileFunction,Soldermask,Top*
G04 #@! TF.FilePolarity,Negative*
%FSLAX46Y46*%
G04 Gerber Fmt 4.6, Leading zero omitted, Abs format (unit mm)*
G04 Created by KiCad (PCBNEW (5.1.8)-1) date 2022-11-25 20:18:31*
%MOMM*%
%LPD*%
G01*
G04 APERTURE LIST*
%ADD10O,1.700000X1.700000*%
%ADD11R,1.700000X1.700000*%
%ADD12R,1.600000X1.600000*%
%ADD13O,1.600000X1.600000*%
%ADD14C,0.600000*%
G04 APERTURE END LIST*
D10*
X13335000Y29845000D03*
D11*
X13335000Y32385000D03*
D12*
X3810000Y34925000D03*
D13*
X19050000Y1905000D03*
X3810000Y32385000D03*
X19050000Y4445000D03*
X3810000Y29845000D03*
X19050000Y6985000D03*
X3810000Y27305000D03*
X19050000Y9525000D03*
X3810000Y24765000D03*
X19050000Y12065000D03*
X3810000Y22225000D03*
X19050000Y14605000D03*
X3810000Y19685000D03*
X19050000Y17145000D03*
X3810000Y17145000D03*
X19050000Y19685000D03*
X3810000Y14605000D03*
X19050000Y22225000D03*
X3810000Y12065000D03*
X19050000Y24765000D03*
X3810000Y9525000D03*
X19050000Y27305000D03*
X3810000Y6985000D03*
X19050000Y29845000D03*
X3810000Y4445000D03*
X19050000Y32385000D03*
X3810000Y1905000D03*
X19050000Y34925000D03*
X16510000Y32385000D03*
X1270000Y4445000D03*
X16510000Y29845000D03*
X1270000Y6985000D03*
X16510000Y27305000D03*
X1270000Y9525000D03*
X16510000Y24765000D03*
X1270000Y12065000D03*
X16510000Y22225000D03*
X1270000Y14605000D03*
X16510000Y19685000D03*
X1270000Y17145000D03*
X16510000Y17145000D03*
X1270000Y19685000D03*
X16510000Y14605000D03*
X1270000Y22225000D03*
X16510000Y12065000D03*
X1270000Y24765000D03*
X16510000Y9525000D03*
X1270000Y27305000D03*
X16510000Y6985000D03*
X1270000Y29845000D03*
X16510000Y4445000D03*
D12*
X1270000Y32385000D03*
D11*
X3175000Y39370000D03*
D10*
X5715000Y39370000D03*
X8255000Y39370000D03*
X8255000Y43180000D03*
X5715000Y43180000D03*
D11*
X3175000Y43180000D03*
X13335000Y39370000D03*
D10*
X15875000Y39370000D03*
X18415000Y39370000D03*
X18415000Y43180000D03*
X15875000Y43180000D03*
D11*
X13335000Y43180000D03*
D14*
X13335000Y4445000D03*
X6350000Y4445000D03*
X13335000Y24765000D03*
X6350000Y24765000D03*
X13335000Y14605000D03*
X6350000Y32385000D03*
X6350000Y14605000D03*
X1270000Y34925000D03*
M02*
