G04 #@! TF.GenerationSoftware,KiCad,Pcbnew,(5.1.8)-1*
G04 #@! TF.CreationDate,2022-11-25T20:18:31+09:00*
G04 #@! TF.ProjectId,MZ80CGROM,4d5a3830-4347-4524-9f4d-2e6b69636164,rev?*
G04 #@! TF.SameCoordinates,PX48ab840PY9157080*
G04 #@! TF.FileFunction,Legend,Top*
G04 #@! TF.FilePolarity,Positive*
%FSLAX46Y46*%
G04 Gerber Fmt 4.6, Leading zero omitted, Abs format (unit mm)*
G04 Created by KiCad (PCBNEW (5.1.8)-1) date 2022-11-25 20:18:31*
%MOMM*%
%LPD*%
G01*
G04 APERTURE LIST*
%ADD10C,0.150000*%
%ADD11C,0.120000*%
G04 APERTURE END LIST*
D10*
X12096904Y27852620D02*
X12430238Y26852620D01*
X12763571Y27852620D01*
X13096904Y27519286D02*
X13096904Y26519286D01*
X13096904Y27471667D02*
X13192142Y27519286D01*
X13382619Y27519286D01*
X13477857Y27471667D01*
X13525476Y27424048D01*
X13573095Y27328810D01*
X13573095Y27043096D01*
X13525476Y26947858D01*
X13477857Y26900239D01*
X13382619Y26852620D01*
X13192142Y26852620D01*
X13096904Y26900239D01*
X14001666Y27519286D02*
X14001666Y26519286D01*
X14001666Y27471667D02*
X14096904Y27519286D01*
X14287380Y27519286D01*
X14382619Y27471667D01*
X14430238Y27424048D01*
X14477857Y27328810D01*
X14477857Y27043096D01*
X14430238Y26947858D01*
X14382619Y26900239D01*
X14287380Y26852620D01*
X14096904Y26852620D01*
X14001666Y26900239D01*
X13606428Y36658572D02*
X13006428Y36658572D01*
X13292142Y36658572D02*
X13292142Y37001429D01*
X13606428Y37001429D02*
X13006428Y37001429D01*
X8526428Y37015715D02*
X8526428Y36730000D01*
X7926428Y36730000D01*
X9501190Y14033810D02*
X9453571Y13986191D01*
X9405952Y13890953D01*
X9405952Y13795715D01*
X9453571Y13700477D01*
X9501190Y13652858D01*
X9596428Y13605239D01*
X9691666Y13605239D01*
X9786904Y13652858D01*
X9834523Y13700477D01*
X9882142Y13795715D01*
X9882142Y13890953D01*
X9834523Y13986191D01*
X9786904Y14033810D01*
X9405952Y14033810D02*
X9786904Y14033810D01*
X9834523Y14081429D01*
X9834523Y14129048D01*
X9786904Y14224286D01*
X9691666Y14271905D01*
X9453571Y14271905D01*
X9310714Y14176667D01*
X9215476Y14033810D01*
X9167857Y13843334D01*
X9215476Y13652858D01*
X9310714Y13510000D01*
X9453571Y13414762D01*
X9644047Y13367143D01*
X9834523Y13414762D01*
X9977380Y13510000D01*
X10072619Y13652858D01*
X10120238Y13843334D01*
X10072619Y14033810D01*
X9977380Y14176667D01*
X9977380Y14700477D02*
X8977380Y14700477D01*
X9977380Y15129048D02*
X9453571Y15129048D01*
X9358333Y15081429D01*
X9310714Y14986191D01*
X9310714Y14843334D01*
X9358333Y14748096D01*
X9405952Y14700477D01*
X9977380Y15748096D02*
X9929761Y15652858D01*
X9882142Y15605239D01*
X9786904Y15557620D01*
X9501190Y15557620D01*
X9405952Y15605239D01*
X9358333Y15652858D01*
X9310714Y15748096D01*
X9310714Y15890953D01*
X9358333Y15986191D01*
X9405952Y16033810D01*
X9501190Y16081429D01*
X9786904Y16081429D01*
X9882142Y16033810D01*
X9929761Y15986191D01*
X9977380Y15890953D01*
X9977380Y15748096D01*
X9310714Y16938572D02*
X9977380Y16938572D01*
X9310714Y16510000D02*
X9834523Y16510000D01*
X9929761Y16557620D01*
X9977380Y16652858D01*
X9977380Y16795715D01*
X9929761Y16890953D01*
X9882142Y16938572D01*
X9977380Y17414762D02*
X9310714Y17414762D01*
X9405952Y17414762D02*
X9358333Y17462381D01*
X9310714Y17557620D01*
X9310714Y17700477D01*
X9358333Y17795715D01*
X9453571Y17843334D01*
X9977380Y17843334D01*
X9453571Y17843334D02*
X9358333Y17890953D01*
X9310714Y17986191D01*
X9310714Y18129048D01*
X9358333Y18224286D01*
X9453571Y18271905D01*
X9977380Y18271905D01*
X9929761Y19129048D02*
X9977380Y19033810D01*
X9977380Y18843334D01*
X9929761Y18748096D01*
X9834523Y18700477D01*
X9453571Y18700477D01*
X9358333Y18748096D01*
X9310714Y18843334D01*
X9310714Y19033810D01*
X9358333Y19129048D01*
X9453571Y19176667D01*
X9548809Y19176667D01*
X9644047Y18700477D01*
X9977380Y19605239D02*
X9310714Y19605239D01*
X8977380Y19605239D02*
X9025000Y19557620D01*
X9072619Y19605239D01*
X9025000Y19652858D01*
X8977380Y19605239D01*
X9072619Y19605239D01*
X8977380Y7517143D02*
X9977380Y7850477D01*
X8977380Y8183810D01*
X8977380Y8707620D02*
X8977380Y8802858D01*
X9025000Y8898096D01*
X9072619Y8945715D01*
X9167857Y8993334D01*
X9358333Y9040953D01*
X9596428Y9040953D01*
X9786904Y8993334D01*
X9882142Y8945715D01*
X9929761Y8898096D01*
X9977380Y8802858D01*
X9977380Y8707620D01*
X9929761Y8612381D01*
X9882142Y8564762D01*
X9786904Y8517143D01*
X9596428Y8469524D01*
X9358333Y8469524D01*
X9167857Y8517143D01*
X9072619Y8564762D01*
X9025000Y8612381D01*
X8977380Y8707620D01*
X9977380Y9993334D02*
X9977380Y9421905D01*
X9977380Y9707620D02*
X8977380Y9707620D01*
X9120238Y9612381D01*
X9215476Y9517143D01*
X9263095Y9421905D01*
X9977380Y10898096D02*
X9977380Y10421905D01*
X8977380Y10421905D01*
X8977380Y11421905D02*
X8977380Y11517143D01*
X9025000Y11612381D01*
X9072619Y11660000D01*
X9167857Y11707620D01*
X9358333Y11755239D01*
X9596428Y11755239D01*
X9786904Y11707620D01*
X9882142Y11660000D01*
X9929761Y11612381D01*
X9977380Y11517143D01*
X9977380Y11421905D01*
X9929761Y11326667D01*
X9882142Y11279048D01*
X9786904Y11231429D01*
X9596428Y11183810D01*
X9358333Y11183810D01*
X9167857Y11231429D01*
X9072619Y11279048D01*
X9025000Y11326667D01*
X8977380Y11421905D01*
X9072619Y12136191D02*
X9025000Y12183810D01*
X8977380Y12279048D01*
X8977380Y12517143D01*
X9025000Y12612381D01*
X9072619Y12660000D01*
X9167857Y12707620D01*
X9263095Y12707620D01*
X9405952Y12660000D01*
X9977380Y12088572D01*
X9977380Y12707620D01*
X7167619Y7700000D02*
X7120000Y7747620D01*
X7072380Y7842858D01*
X7072380Y8080953D01*
X7120000Y8176191D01*
X7167619Y8223810D01*
X7262857Y8271429D01*
X7358095Y8271429D01*
X7500952Y8223810D01*
X8072380Y7652381D01*
X8072380Y8271429D01*
X7072380Y8604762D02*
X7072380Y9271429D01*
X8072380Y8842858D01*
X7072380Y10128572D02*
X7072380Y9652381D01*
X7548571Y9604762D01*
X7500952Y9652381D01*
X7453333Y9747620D01*
X7453333Y9985715D01*
X7500952Y10080953D01*
X7548571Y10128572D01*
X7643809Y10176191D01*
X7881904Y10176191D01*
X7977142Y10128572D01*
X8024761Y10080953D01*
X8072380Y9985715D01*
X8072380Y9747620D01*
X8024761Y9652381D01*
X7977142Y9604762D01*
X8072380Y11128572D02*
X8072380Y10557143D01*
X8072380Y10842858D02*
X7072380Y10842858D01*
X7215238Y10747620D01*
X7310476Y10652381D01*
X7358095Y10557143D01*
X7167619Y11509524D02*
X7120000Y11557143D01*
X7072380Y11652381D01*
X7072380Y11890477D01*
X7120000Y11985715D01*
X7167619Y12033334D01*
X7262857Y12080953D01*
X7358095Y12080953D01*
X7500952Y12033334D01*
X8072380Y11461905D01*
X8072380Y12080953D01*
X8072380Y12652381D02*
X8024761Y12557143D01*
X7977142Y12509524D01*
X7881904Y12461905D01*
X7596190Y12461905D01*
X7500952Y12509524D01*
X7453333Y12557143D01*
X7405714Y12652381D01*
X7405714Y12795239D01*
X7453333Y12890477D01*
X7500952Y12938096D01*
X7596190Y12985715D01*
X7881904Y12985715D01*
X7977142Y12938096D01*
X8024761Y12890477D01*
X8072380Y12795239D01*
X8072380Y12652381D01*
X7405714Y13414286D02*
X8072380Y13414286D01*
X7500952Y13414286D02*
X7453333Y13461905D01*
X7405714Y13557143D01*
X7405714Y13700000D01*
X7453333Y13795239D01*
X7548571Y13842858D01*
X8072380Y13842858D01*
X7167619Y14271429D02*
X7120000Y14319048D01*
X7072380Y14414286D01*
X7072380Y14652381D01*
X7120000Y14747620D01*
X7167619Y14795239D01*
X7262857Y14842858D01*
X7358095Y14842858D01*
X7500952Y14795239D01*
X8072380Y14223810D01*
X8072380Y14842858D01*
X7072380Y15747620D02*
X7072380Y15271429D01*
X7548571Y15223810D01*
X7500952Y15271429D01*
X7453333Y15366667D01*
X7453333Y15604762D01*
X7500952Y15700000D01*
X7548571Y15747620D01*
X7643809Y15795239D01*
X7881904Y15795239D01*
X7977142Y15747620D01*
X8024761Y15700000D01*
X8072380Y15604762D01*
X8072380Y15366667D01*
X8024761Y15271429D01*
X7977142Y15223810D01*
X7072380Y16128572D02*
X7072380Y16747620D01*
X7453333Y16414286D01*
X7453333Y16557143D01*
X7500952Y16652381D01*
X7548571Y16700000D01*
X7643809Y16747620D01*
X7881904Y16747620D01*
X7977142Y16700000D01*
X8024761Y16652381D01*
X8072380Y16557143D01*
X8072380Y16271429D01*
X8024761Y16176191D01*
X7977142Y16128572D01*
X7167619Y17128572D02*
X7120000Y17176191D01*
X7072380Y17271429D01*
X7072380Y17509524D01*
X7120000Y17604762D01*
X7167619Y17652381D01*
X7262857Y17700000D01*
X7358095Y17700000D01*
X7500952Y17652381D01*
X8072380Y17080953D01*
X8072380Y17700000D01*
X3446428Y36658572D02*
X2846428Y36658572D01*
X3132142Y36658572D02*
X3132142Y37001429D01*
X3446428Y37001429D02*
X2846428Y37001429D01*
X18686428Y37015715D02*
X18686428Y36730000D01*
X18086428Y36730000D01*
X10961666Y41354524D02*
X10961666Y41830715D01*
X11247380Y41259286D02*
X10247380Y41592620D01*
X11247380Y41925953D01*
X11247380Y42783096D02*
X11247380Y42211667D01*
X11247380Y42497381D02*
X10247380Y42497381D01*
X10390238Y42402143D01*
X10485476Y42306905D01*
X10533095Y42211667D01*
X10247380Y43687858D02*
X10247380Y43211667D01*
X10723571Y43164048D01*
X10675952Y43211667D01*
X10628333Y43306905D01*
X10628333Y43545000D01*
X10675952Y43640239D01*
X10723571Y43687858D01*
X10818809Y43735477D01*
X11056904Y43735477D01*
X11152142Y43687858D01*
X11199761Y43640239D01*
X11247380Y43545000D01*
X11247380Y43306905D01*
X11199761Y43211667D01*
X11152142Y43164048D01*
X10961666Y38179524D02*
X10961666Y38655715D01*
X11247380Y38084286D02*
X10247380Y38417620D01*
X11247380Y38750953D01*
X11247380Y39608096D02*
X11247380Y39036667D01*
X11247380Y39322381D02*
X10247380Y39322381D01*
X10390238Y39227143D01*
X10485476Y39131905D01*
X10533095Y39036667D01*
X10580714Y40465239D02*
X11247380Y40465239D01*
X10199761Y40227143D02*
X10914047Y39989048D01*
X10914047Y40608096D01*
X801666Y41354524D02*
X801666Y41830715D01*
X1087380Y41259286D02*
X87380Y41592620D01*
X1087380Y41925953D01*
X1087380Y42783096D02*
X1087380Y42211667D01*
X1087380Y42497381D02*
X87380Y42497381D01*
X230238Y42402143D01*
X325476Y42306905D01*
X373095Y42211667D01*
X87380Y43116429D02*
X87380Y43735477D01*
X468333Y43402143D01*
X468333Y43545000D01*
X515952Y43640239D01*
X563571Y43687858D01*
X658809Y43735477D01*
X896904Y43735477D01*
X992142Y43687858D01*
X1039761Y43640239D01*
X1087380Y43545000D01*
X1087380Y43259286D01*
X1039761Y43164048D01*
X992142Y43116429D01*
X801666Y38179524D02*
X801666Y38655715D01*
X1087380Y38084286D02*
X87380Y38417620D01*
X1087380Y38750953D01*
X1087380Y39608096D02*
X1087380Y39036667D01*
X1087380Y39322381D02*
X87380Y39322381D01*
X230238Y39227143D01*
X325476Y39131905D01*
X373095Y39036667D01*
X182619Y39989048D02*
X135000Y40036667D01*
X87380Y40131905D01*
X87380Y40370000D01*
X135000Y40465239D01*
X182619Y40512858D01*
X277857Y40560477D01*
X373095Y40560477D01*
X515952Y40512858D01*
X1087380Y39941429D01*
X1087380Y40560477D01*
D11*
X12005000Y33715000D02*
X13335000Y33715000D01*
X12005000Y32385000D02*
X12005000Y33715000D01*
X12005000Y31115000D02*
X14665000Y31115000D01*
X14665000Y31115000D02*
X14665000Y28515000D01*
X12005000Y31115000D02*
X12005000Y28515000D01*
X12005000Y28515000D02*
X14665000Y28515000D01*
X17890000Y36255000D02*
X12430000Y36255000D01*
X17890000Y575000D02*
X17890000Y36255000D01*
X4970000Y575000D02*
X17890000Y575000D01*
X4970000Y36255000D02*
X4970000Y575000D01*
X10430000Y36255000D02*
X4970000Y36255000D01*
X12430000Y36255000D02*
G75*
G02*
X10430000Y36255000I-1000000J0D01*
G01*
X15350000Y33715000D02*
X9890000Y33715000D01*
X15350000Y3115000D02*
X15350000Y33715000D01*
X2430000Y3115000D02*
X15350000Y3115000D01*
X2430000Y33715000D02*
X2430000Y3115000D01*
X7890000Y33715000D02*
X2430000Y33715000D01*
X9890000Y33715000D02*
G75*
G02*
X7890000Y33715000I-1000000J0D01*
G01*
X1845000Y38040000D02*
X1845000Y39370000D01*
X3175000Y38040000D02*
X1845000Y38040000D01*
X4445000Y38040000D02*
X4445000Y40700000D01*
X4445000Y40700000D02*
X9585000Y40700000D01*
X4445000Y38040000D02*
X9585000Y38040000D01*
X9585000Y38040000D02*
X9585000Y40700000D01*
X9585000Y41850000D02*
X9585000Y44510000D01*
X4445000Y41850000D02*
X9585000Y41850000D01*
X4445000Y44510000D02*
X9585000Y44510000D01*
X4445000Y41850000D02*
X4445000Y44510000D01*
X3175000Y41850000D02*
X1845000Y41850000D01*
X1845000Y41850000D02*
X1845000Y43180000D01*
X12005000Y38040000D02*
X12005000Y39370000D01*
X13335000Y38040000D02*
X12005000Y38040000D01*
X14605000Y38040000D02*
X14605000Y40700000D01*
X14605000Y40700000D02*
X19745000Y40700000D01*
X14605000Y38040000D02*
X19745000Y38040000D01*
X19745000Y38040000D02*
X19745000Y40700000D01*
X19745000Y41850000D02*
X19745000Y44510000D01*
X14605000Y41850000D02*
X19745000Y41850000D01*
X14605000Y44510000D02*
X19745000Y44510000D01*
X14605000Y41850000D02*
X14605000Y44510000D01*
X13335000Y41850000D02*
X12005000Y41850000D01*
X12005000Y41850000D02*
X12005000Y43180000D01*
M02*
